M48
; DRILL file {KiCad (5.1.12)-1} date 01/22/22 22:18:54
; FORMAT={-:-/ absolute / inch / decimal}
; #@! TF.CreationDate,2022-01-22T22:18:54+07:00
; #@! TF.GenerationSoftware,Kicad,Pcbnew,(5.1.12)-1
; #@! TF.FileFunction,Plated,1,2,PTH
FMAT,2
INCH
T1C0.0157
T2C0.0236
T3C0.0394
%
G90
G05
T1
X1.25Y-1.6562
X1.3125Y-1.0312
X1.4062Y-1.1875
X1.5312Y-2.3125
X1.625Y-0.8438
X1.6875Y-0.9062
X1.6875Y-3.0625
X1.75Y-0.8438
X1.8125Y-2.4375
X1.8125Y-4.0
X1.875Y-1.6562
X1.875Y-1.9688
X1.9375Y-2.0312
X1.9375Y-3.1875
X1.9688Y-1.1875
X1.9688Y-2.1562
X1.9688Y-3.25
X2.0Y-1.6562
X2.0Y-3.0938
X2.0312Y-1.875
X2.0625Y-3.25
X2.0625Y-4.4688
X2.0938Y-1.0625
X2.125Y-3.5625
X2.1875Y-3.0938
X2.2188Y-2.1562
X2.2188Y-4.5938
X2.2812Y-3.7188
X2.3125Y-3.375
X2.5Y-3.6875
X2.5Y-3.9375
X2.5625Y-3.5625
X2.5938Y-2.4375
X2.6562Y-3.7812
X2.6875Y-3.8438
X2.8125Y-3.1875
X2.8125Y-3.7188
X2.8438Y-3.8438
X2.8438Y-4.0312
X2.9475Y-1.7288
X3.0023Y-4.2125
X3.0625Y-4.5
X3.1562Y-4.5938
X3.1875Y-2.25
X3.25Y-3.9688
X3.3125Y-3.9688
X3.3438Y-2.4375
X3.4062Y-3.8125
X3.5625Y-3.1875
X3.625Y-4.5625
X3.6975Y-1.7288
X3.75Y-4.7648
X4.0938Y-2.4375
X4.25Y-3.7812
X4.3125Y-3.1875
X4.4062Y-3.875
X4.4587Y-1.7288
X4.5312Y-4.0625
X4.6562Y-4.0625
X4.6875Y-2.3125
X4.8438Y-2.4375
X4.9062Y-4.0625
X5.0Y-3.7812
X5.0Y-4.0625
X5.0625Y-3.1875
X5.2087Y-1.7288
X5.25Y-4.0625
X5.5625Y-3.8125
X5.5938Y-2.4375
X5.7188Y-3.9062
X5.7188Y-4.0312
X5.7812Y-3.8125
X5.8125Y-3.1875
X5.9475Y-1.7288
X6.0Y-4.7812
X6.1875Y-2.3125
X6.204Y-4.4688
X6.3438Y-2.4375
X6.4062Y-4.0312
X6.4375Y-3.6875
X6.4375Y-4.1875
X6.4375Y-4.4375
X6.5312Y-4.0
X6.5312Y-4.4375
X6.5625Y-3.1875
X6.5625Y-4.1875
X6.6975Y-1.7288
X6.8125Y-4.2188
X6.8125Y-4.2581
X6.8125Y-4.2975
X6.8438Y-4.125
X6.875Y-3.7812
X7.0312Y-4.0
X7.0625Y-4.125
X7.0938Y-2.4375
X7.0938Y-4.0
X7.1019Y-4.125
X7.1223Y-4.1587
X7.125Y-3.0312
X7.1875Y-4.5
X7.2188Y-3.7812
X7.2188Y-3.8438
X7.2812Y-4.0312
X7.2812Y-4.4375
X7.2858Y-4.5358
X7.3125Y-3.1875
X7.3438Y-4.25
X7.4475Y-1.7288
X7.6875Y-2.3438
X7.7188Y-4.2188
X7.7188Y-4.3438
X7.8125Y-3.9375
X7.8438Y-2.4375
X7.9688Y-3.7812
X7.9688Y-3.875
X8.0625Y-3.1875
X8.1562Y-4.1562
X8.1975Y-1.7288
X8.375Y-3.9375
X8.5938Y-2.4375
X8.5938Y-3.8438
X8.6562Y-3.7812
X8.8125Y-3.1875
X8.8438Y-4.75
X8.9587Y-1.7288
X9.0312Y-4.5625
X9.2188Y-2.3125
X9.25Y-3.9062
X9.3438Y-2.4375
X9.3438Y-4.5938
X9.375Y-4.2188
X9.4688Y-4.4688
X9.5625Y-3.1875
X9.7087Y-1.7288
X9.9688Y-3.9062
X10.0938Y-2.4375
X10.3125Y-3.1875
X10.3125Y-3.625
X10.4688Y-4.25
X10.4788Y-1.7288
X10.6562Y-2.7188
X10.8438Y-2.4375
X10.9375Y-1.2812
X11.0Y-3.9062
X11.1875Y-2.0938
X11.25Y-3.5938
X11.4062Y-4.5938
X11.4688Y-4.5312
X11.51Y-3.2288
X11.5938Y-1.75
X11.7812Y-2.4375
X11.9688Y-2.7188
X12.0312Y-1.2812
X12.0312Y-3.9062
X12.0625Y-2.0625
X12.1562Y-4.625
X12.25Y-4.5312
X12.6875Y-1.7188
X12.7188Y-2.4375
X12.7188Y-3.9062
X12.75Y-3.1562
X12.875Y-1.6562
T3
X8.4625Y-3.9187
X8.4625Y-4.0187
X8.5625Y-3.9187
X8.5625Y-4.0187
X8.6625Y-3.9187
X8.6625Y-4.0187
T2
G00X1.5174Y-0.8406
M15
G01X1.5174Y-0.8642
M16
G05
G00X1.5174Y-0.9953
M15
G01X1.5174Y-1.0386
M16
G05
G00X1.8576Y-0.8406
M15
G01X1.8576Y-0.8642
M16
G05
G00X1.8576Y-0.9953
M15
G01X1.8576Y-1.0386
M16
G05
T0
M30
