G04 #@! TF.GenerationSoftware,KiCad,Pcbnew,(5.1.12)-1*
G04 #@! TF.CreationDate,2022-01-22T22:18:12+07:00*
G04 #@! TF.ProjectId,PCB,5043422e-6b69-4636-9164-5f7063625858,rev?*
G04 #@! TF.SameCoordinates,Original*
G04 #@! TF.FileFunction,Legend,Bot*
G04 #@! TF.FilePolarity,Positive*
%FSLAX46Y46*%
G04 Gerber Fmt 4.6, Leading zero omitted, Abs format (unit mm)*
G04 Created by KiCad (PCBNEW (5.1.12)-1) date 2022-01-22 22:18:12*
%MOMM*%
%LPD*%
G01*
G04 APERTURE LIST*
%ADD10C,0.120000*%
%ADD11C,0.250000*%
%ADD12C,0.150000*%
G04 APERTURE END LIST*
D10*
X51210242Y-24840000D02*
X50389758Y-24840000D01*
X51210242Y-25960000D02*
X50389758Y-25960000D01*
X190562500Y-110743750D02*
X187262500Y-110743750D01*
X187262500Y-110743750D02*
X187262500Y-106743750D01*
X208837500Y-110443750D02*
X208387500Y-109993750D01*
X208837500Y-107043750D02*
X208387500Y-107493750D01*
X213437500Y-107043750D02*
X213887500Y-107493750D01*
X213437500Y-110443750D02*
X213887500Y-109993750D01*
X212137500Y-105993750D02*
X210137500Y-105993750D01*
X208387500Y-109993750D02*
X208387500Y-107493750D01*
X212137500Y-111493750D02*
X210137500Y-111493750D01*
X213887500Y-109993750D02*
X213887500Y-107493750D01*
X39120814Y-29427500D02*
X38666686Y-29427500D01*
X39120814Y-30897500D02*
X38666686Y-30897500D01*
X46604186Y-30897500D02*
X47058314Y-30897500D01*
X46604186Y-29427500D02*
X47058314Y-29427500D01*
X183335436Y-100747500D02*
X183789564Y-100747500D01*
X183335436Y-99277500D02*
X183789564Y-99277500D01*
X170089564Y-100071250D02*
X169635436Y-100071250D01*
X170089564Y-101541250D02*
X169635436Y-101541250D01*
X170089564Y-96896250D02*
X169635436Y-96896250D01*
X170089564Y-98366250D02*
X169635436Y-98366250D01*
X167254186Y-118210000D02*
X167708314Y-118210000D01*
X167254186Y-116740000D02*
X167708314Y-116740000D01*
D11*
X213737500Y-103306250D02*
X216237500Y-103306250D01*
X213737500Y-98306250D02*
X213737500Y-103306250D01*
X216237500Y-98306250D02*
X213737500Y-98306250D01*
X216237500Y-103306250D02*
X216237500Y-98306250D01*
D10*
X42978750Y-41083314D02*
X42978750Y-39879186D01*
X41158750Y-41083314D02*
X41158750Y-39879186D01*
D12*
X45100000Y-34787500D02*
X43800000Y-34787500D01*
X45100000Y-31887500D02*
X45100000Y-34787500D01*
X43800000Y-31887500D02*
X45100000Y-31887500D01*
X43800000Y-31887500D02*
X43800000Y-34787500D01*
D10*
X324437500Y-112050000D02*
X326437500Y-112050000D01*
X326437500Y-112050000D02*
X326437500Y-115950000D01*
X324437500Y-112050000D02*
X324437500Y-115950000D01*
X305387500Y-112050000D02*
X307387500Y-112050000D01*
X307387500Y-112050000D02*
X307387500Y-115950000D01*
X305387500Y-112050000D02*
X305387500Y-115950000D01*
X286337500Y-112050000D02*
X288337500Y-112050000D01*
X288337500Y-112050000D02*
X288337500Y-115950000D01*
X286337500Y-112050000D02*
X286337500Y-115950000D01*
X255381250Y-112050000D02*
X257381250Y-112050000D01*
X257381250Y-112050000D02*
X257381250Y-115950000D01*
X255381250Y-112050000D02*
X255381250Y-115950000D01*
X231568750Y-112050000D02*
X233568750Y-112050000D01*
X233568750Y-112050000D02*
X233568750Y-115950000D01*
X231568750Y-112050000D02*
X231568750Y-115950000D01*
X160131250Y-112050000D02*
X162131250Y-112050000D01*
X162131250Y-112050000D02*
X162131250Y-115950000D01*
X160131250Y-112050000D02*
X160131250Y-115950000D01*
X88693750Y-112050000D02*
X90693750Y-112050000D01*
X90693750Y-112050000D02*
X90693750Y-115950000D01*
X88693750Y-112050000D02*
X88693750Y-115950000D01*
X64881250Y-112050000D02*
X66881250Y-112050000D01*
X66881250Y-112050000D02*
X66881250Y-115950000D01*
X64881250Y-112050000D02*
X64881250Y-115950000D01*
X41068750Y-112050000D02*
X43068750Y-112050000D01*
X43068750Y-112050000D02*
X43068750Y-115950000D01*
X41068750Y-112050000D02*
X41068750Y-115950000D01*
X324437500Y-93000000D02*
X326437500Y-93000000D01*
X326437500Y-93000000D02*
X326437500Y-96900000D01*
X324437500Y-93000000D02*
X324437500Y-96900000D01*
X305387500Y-93000000D02*
X307387500Y-93000000D01*
X307387500Y-93000000D02*
X307387500Y-96900000D01*
X305387500Y-93000000D02*
X305387500Y-96900000D01*
X279193750Y-93000000D02*
X281193750Y-93000000D01*
X281193750Y-93000000D02*
X281193750Y-96900000D01*
X279193750Y-93000000D02*
X279193750Y-96900000D01*
X253000000Y-93000000D02*
X255000000Y-93000000D01*
X255000000Y-93000000D02*
X255000000Y-96900000D01*
X253000000Y-93000000D02*
X253000000Y-96900000D01*
X233950000Y-93000000D02*
X235950000Y-93000000D01*
X235950000Y-93000000D02*
X235950000Y-96900000D01*
X233950000Y-93000000D02*
X233950000Y-96900000D01*
X214900000Y-93000000D02*
X216900000Y-93000000D01*
X216900000Y-93000000D02*
X216900000Y-96900000D01*
X214900000Y-93000000D02*
X214900000Y-96900000D01*
X195850000Y-93000000D02*
X197850000Y-93000000D01*
X197850000Y-93000000D02*
X197850000Y-96900000D01*
X195850000Y-93000000D02*
X195850000Y-96900000D01*
X176800000Y-93000000D02*
X178800000Y-93000000D01*
X178800000Y-93000000D02*
X178800000Y-96900000D01*
X176800000Y-93000000D02*
X176800000Y-96900000D01*
X157750000Y-93000000D02*
X159750000Y-93000000D01*
X159750000Y-93000000D02*
X159750000Y-96900000D01*
X157750000Y-93000000D02*
X157750000Y-96900000D01*
X138700000Y-93000000D02*
X140700000Y-93000000D01*
X140700000Y-93000000D02*
X140700000Y-96900000D01*
X138700000Y-93000000D02*
X138700000Y-96900000D01*
X119650000Y-93000000D02*
X121650000Y-93000000D01*
X121650000Y-93000000D02*
X121650000Y-96900000D01*
X119650000Y-93000000D02*
X119650000Y-96900000D01*
X100600000Y-93000000D02*
X102600000Y-93000000D01*
X102600000Y-93000000D02*
X102600000Y-96900000D01*
X100600000Y-93000000D02*
X100600000Y-96900000D01*
X81550000Y-93000000D02*
X83550000Y-93000000D01*
X83550000Y-93000000D02*
X83550000Y-96900000D01*
X81550000Y-93000000D02*
X81550000Y-96900000D01*
X50593750Y-93000000D02*
X52593750Y-93000000D01*
X52593750Y-93000000D02*
X52593750Y-96900000D01*
X50593750Y-93000000D02*
X50593750Y-96900000D01*
X324437500Y-73950000D02*
X326437500Y-73950000D01*
X326437500Y-73950000D02*
X326437500Y-77850000D01*
X324437500Y-73950000D02*
X324437500Y-77850000D01*
X293481250Y-73950000D02*
X295481250Y-73950000D01*
X295481250Y-73950000D02*
X295481250Y-77850000D01*
X293481250Y-73950000D02*
X293481250Y-77850000D01*
X262525000Y-73950000D02*
X264525000Y-73950000D01*
X264525000Y-73950000D02*
X264525000Y-77850000D01*
X262525000Y-73950000D02*
X262525000Y-77850000D01*
X243475000Y-73950000D02*
X245475000Y-73950000D01*
X245475000Y-73950000D02*
X245475000Y-77850000D01*
X243475000Y-73950000D02*
X243475000Y-77850000D01*
X224425000Y-73950000D02*
X226425000Y-73950000D01*
X226425000Y-73950000D02*
X226425000Y-77850000D01*
X224425000Y-73950000D02*
X224425000Y-77850000D01*
X205375000Y-73950000D02*
X207375000Y-73950000D01*
X207375000Y-73950000D02*
X207375000Y-77850000D01*
X205375000Y-73950000D02*
X205375000Y-77850000D01*
X186325000Y-73950000D02*
X188325000Y-73950000D01*
X188325000Y-73950000D02*
X188325000Y-77850000D01*
X186325000Y-73950000D02*
X186325000Y-77850000D01*
X167275000Y-73950000D02*
X169275000Y-73950000D01*
X169275000Y-73950000D02*
X169275000Y-77850000D01*
X167275000Y-73950000D02*
X167275000Y-77850000D01*
X148225000Y-73950000D02*
X150225000Y-73950000D01*
X150225000Y-73950000D02*
X150225000Y-77850000D01*
X148225000Y-73950000D02*
X148225000Y-77850000D01*
X129175000Y-73950000D02*
X131175000Y-73950000D01*
X131175000Y-73950000D02*
X131175000Y-77850000D01*
X129175000Y-73950000D02*
X129175000Y-77850000D01*
X110125000Y-73950000D02*
X112125000Y-73950000D01*
X112125000Y-73950000D02*
X112125000Y-77850000D01*
X110125000Y-73950000D02*
X110125000Y-77850000D01*
X91075000Y-73950000D02*
X93075000Y-73950000D01*
X93075000Y-73950000D02*
X93075000Y-77850000D01*
X91075000Y-73950000D02*
X91075000Y-77850000D01*
X72025000Y-73950000D02*
X74025000Y-73950000D01*
X74025000Y-73950000D02*
X74025000Y-77850000D01*
X72025000Y-73950000D02*
X72025000Y-77850000D01*
X45831250Y-73950000D02*
X47831250Y-73950000D01*
X47831250Y-73950000D02*
X47831250Y-77850000D01*
X45831250Y-73950000D02*
X45831250Y-77850000D01*
X324437500Y-54900000D02*
X326437500Y-54900000D01*
X326437500Y-54900000D02*
X326437500Y-58800000D01*
X324437500Y-54900000D02*
X324437500Y-58800000D01*
X300625000Y-54900000D02*
X302625000Y-54900000D01*
X302625000Y-54900000D02*
X302625000Y-58800000D01*
X300625000Y-54900000D02*
X300625000Y-58800000D01*
X276812500Y-54900000D02*
X278812500Y-54900000D01*
X278812500Y-54900000D02*
X278812500Y-58800000D01*
X276812500Y-54900000D02*
X276812500Y-58800000D01*
X257762500Y-54900000D02*
X259762500Y-54900000D01*
X259762500Y-54900000D02*
X259762500Y-58800000D01*
X257762500Y-54900000D02*
X257762500Y-58800000D01*
X238712500Y-54900000D02*
X240712500Y-54900000D01*
X240712500Y-54900000D02*
X240712500Y-58800000D01*
X238712500Y-54900000D02*
X238712500Y-58800000D01*
X219662500Y-54900000D02*
X221662500Y-54900000D01*
X221662500Y-54900000D02*
X221662500Y-58800000D01*
X219662500Y-54900000D02*
X219662500Y-58800000D01*
X200612500Y-54900000D02*
X202612500Y-54900000D01*
X202612500Y-54900000D02*
X202612500Y-58800000D01*
X200612500Y-54900000D02*
X200612500Y-58800000D01*
X181562500Y-54900000D02*
X183562500Y-54900000D01*
X183562500Y-54900000D02*
X183562500Y-58800000D01*
X181562500Y-54900000D02*
X181562500Y-58800000D01*
X162512500Y-54900000D02*
X164512500Y-54900000D01*
X164512500Y-54900000D02*
X164512500Y-58800000D01*
X162512500Y-54900000D02*
X162512500Y-58800000D01*
X143462500Y-54900000D02*
X145462500Y-54900000D01*
X145462500Y-54900000D02*
X145462500Y-58800000D01*
X143462500Y-54900000D02*
X143462500Y-58800000D01*
X124412500Y-54900000D02*
X126412500Y-54900000D01*
X126412500Y-54900000D02*
X126412500Y-58800000D01*
X124412500Y-54900000D02*
X124412500Y-58800000D01*
X105362500Y-54900000D02*
X107362500Y-54900000D01*
X107362500Y-54900000D02*
X107362500Y-58800000D01*
X105362500Y-54900000D02*
X105362500Y-58800000D01*
X86312500Y-54900000D02*
X88312500Y-54900000D01*
X88312500Y-54900000D02*
X88312500Y-58800000D01*
X86312500Y-54900000D02*
X86312500Y-58800000D01*
X67262500Y-54900000D02*
X69262500Y-54900000D01*
X69262500Y-54900000D02*
X69262500Y-58800000D01*
X67262500Y-54900000D02*
X67262500Y-58800000D01*
X43450000Y-54900000D02*
X45450000Y-54900000D01*
X45450000Y-54900000D02*
X45450000Y-58800000D01*
X43450000Y-54900000D02*
X43450000Y-58800000D01*
X324437500Y-35850000D02*
X326437500Y-35850000D01*
X326437500Y-35850000D02*
X326437500Y-39750000D01*
X324437500Y-35850000D02*
X324437500Y-39750000D01*
X295862500Y-35850000D02*
X297862500Y-35850000D01*
X297862500Y-35850000D02*
X297862500Y-39750000D01*
X295862500Y-35850000D02*
X295862500Y-39750000D01*
X267287500Y-35850000D02*
X269287500Y-35850000D01*
X269287500Y-35850000D02*
X269287500Y-39750000D01*
X267287500Y-35850000D02*
X267287500Y-39750000D01*
X248237500Y-35850000D02*
X250237500Y-35850000D01*
X250237500Y-35850000D02*
X250237500Y-39750000D01*
X248237500Y-35850000D02*
X248237500Y-39750000D01*
X229187500Y-35850000D02*
X231187500Y-35850000D01*
X231187500Y-35850000D02*
X231187500Y-39750000D01*
X229187500Y-35850000D02*
X229187500Y-39750000D01*
X210137500Y-35850000D02*
X212137500Y-35850000D01*
X212137500Y-35850000D02*
X212137500Y-39750000D01*
X210137500Y-35850000D02*
X210137500Y-39750000D01*
X191087500Y-35850000D02*
X193087500Y-35850000D01*
X193087500Y-35850000D02*
X193087500Y-39750000D01*
X191087500Y-35850000D02*
X191087500Y-39750000D01*
X172037500Y-35850000D02*
X174037500Y-35850000D01*
X174037500Y-35850000D02*
X174037500Y-39750000D01*
X172037500Y-35850000D02*
X172037500Y-39750000D01*
X152987500Y-35850000D02*
X154987500Y-35850000D01*
X154987500Y-35850000D02*
X154987500Y-39750000D01*
X152987500Y-35850000D02*
X152987500Y-39750000D01*
X133937500Y-35850000D02*
X135937500Y-35850000D01*
X135937500Y-35850000D02*
X135937500Y-39750000D01*
X133937500Y-35850000D02*
X133937500Y-39750000D01*
X114887500Y-35850000D02*
X116887500Y-35850000D01*
X116887500Y-35850000D02*
X116887500Y-39750000D01*
X114887500Y-35850000D02*
X114887500Y-39750000D01*
X95837500Y-35850000D02*
X97837500Y-35850000D01*
X97837500Y-35850000D02*
X97837500Y-39750000D01*
X95837500Y-35850000D02*
X95837500Y-39750000D01*
X76787500Y-35850000D02*
X78787500Y-35850000D01*
X78787500Y-35850000D02*
X78787500Y-39750000D01*
X76787500Y-35850000D02*
X76787500Y-39750000D01*
X45375000Y-43068750D02*
X45375000Y-41068750D01*
X45375000Y-41068750D02*
X49275000Y-41068750D01*
X45375000Y-43068750D02*
X49275000Y-43068750D01*
X26325000Y-43068750D02*
X26325000Y-41068750D01*
X26325000Y-41068750D02*
X30225000Y-41068750D01*
X26325000Y-43068750D02*
X30225000Y-43068750D01*
X193413748Y-107891250D02*
X193936252Y-107891250D01*
X193413748Y-106421250D02*
X193936252Y-106421250D01*
X193413748Y-111066250D02*
X193936252Y-111066250D01*
X193413748Y-109596250D02*
X193936252Y-109596250D01*
X165632498Y-104716250D02*
X166155002Y-104716250D01*
X165632498Y-103246250D02*
X166155002Y-103246250D01*
X166746250Y-112451248D02*
X166746250Y-112973752D01*
X168216250Y-112451248D02*
X168216250Y-112973752D01*
X183861252Y-115946250D02*
X183338748Y-115946250D01*
X183861252Y-117416250D02*
X183338748Y-117416250D01*
X188853750Y-104242502D02*
X188853750Y-103719998D01*
X187383750Y-104242502D02*
X187383750Y-103719998D01*
X178855002Y-98483750D02*
X178332498Y-98483750D01*
X178855002Y-99953750D02*
X178332498Y-99953750D01*
D12*
X171831250Y-103568750D02*
X172406250Y-103568750D01*
X171831250Y-113918750D02*
X172506250Y-113918750D01*
X182181250Y-113918750D02*
X181506250Y-113918750D01*
X182181250Y-103568750D02*
X181506250Y-103568750D01*
X171831250Y-103568750D02*
X171831250Y-104243750D01*
X182181250Y-103568750D02*
X182181250Y-104243750D01*
X182181250Y-113918750D02*
X182181250Y-113243750D01*
X171831250Y-113918750D02*
X171831250Y-113243750D01*
X172406250Y-103568750D02*
X172406250Y-102293750D01*
X51633333Y-23778571D02*
X51966666Y-23778571D01*
X51966666Y-24302380D02*
X51966666Y-23302380D01*
X51490476Y-23302380D01*
X50776190Y-23778571D02*
X50633333Y-23826190D01*
X50585714Y-23873809D01*
X50538095Y-23969047D01*
X50538095Y-24111904D01*
X50585714Y-24207142D01*
X50633333Y-24254761D01*
X50728571Y-24302380D01*
X51109523Y-24302380D01*
X51109523Y-23302380D01*
X50776190Y-23302380D01*
X50680952Y-23350000D01*
X50633333Y-23397619D01*
X50585714Y-23492857D01*
X50585714Y-23588095D01*
X50633333Y-23683333D01*
X50680952Y-23730952D01*
X50776190Y-23778571D01*
X51109523Y-23778571D01*
X49585714Y-24302380D02*
X50157142Y-24302380D01*
X49871428Y-24302380D02*
X49871428Y-23302380D01*
X49966666Y-23445238D01*
X50061904Y-23540476D01*
X50157142Y-23588095D01*
X227671130Y-102052380D02*
X227671130Y-101385714D01*
X227671130Y-101576190D02*
X227623511Y-101480952D01*
X227575892Y-101433333D01*
X227480654Y-101385714D01*
X227385416Y-101385714D01*
X227290178Y-102147619D02*
X226528273Y-102147619D01*
X225861607Y-102052380D02*
X225861607Y-101528571D01*
X225909226Y-101433333D01*
X226004464Y-101385714D01*
X226194940Y-101385714D01*
X226290178Y-101433333D01*
X225861607Y-102004761D02*
X225956845Y-102052380D01*
X226194940Y-102052380D01*
X226290178Y-102004761D01*
X226337797Y-101909523D01*
X226337797Y-101814285D01*
X226290178Y-101719047D01*
X226194940Y-101671428D01*
X225956845Y-101671428D01*
X225861607Y-101623809D01*
X225242559Y-102052380D02*
X225337797Y-102004761D01*
X225385416Y-101909523D01*
X225385416Y-101052380D01*
X225004464Y-101385714D02*
X224623511Y-101385714D01*
X224861607Y-101052380D02*
X224861607Y-101909523D01*
X224813988Y-102004761D01*
X224718750Y-102052380D01*
X224623511Y-102052380D01*
X156757440Y-102004761D02*
X156662202Y-102052380D01*
X156471726Y-102052380D01*
X156376488Y-102004761D01*
X156328869Y-101909523D01*
X156328869Y-101861904D01*
X156376488Y-101766666D01*
X156471726Y-101719047D01*
X156614583Y-101719047D01*
X156709821Y-101671428D01*
X156757440Y-101576190D01*
X156757440Y-101528571D01*
X156709821Y-101433333D01*
X156614583Y-101385714D01*
X156471726Y-101385714D01*
X156376488Y-101433333D01*
X155900297Y-101385714D02*
X155900297Y-102385714D01*
X155900297Y-101433333D02*
X155805059Y-101385714D01*
X155614583Y-101385714D01*
X155519345Y-101433333D01*
X155471726Y-101480952D01*
X155424107Y-101576190D01*
X155424107Y-101861904D01*
X155471726Y-101957142D01*
X155519345Y-102004761D01*
X155614583Y-102052380D01*
X155805059Y-102052380D01*
X155900297Y-102004761D01*
X154566964Y-102052380D02*
X154566964Y-101528571D01*
X154614583Y-101433333D01*
X154709821Y-101385714D01*
X154900297Y-101385714D01*
X154995535Y-101433333D01*
X154566964Y-102004761D02*
X154662202Y-102052380D01*
X154900297Y-102052380D01*
X154995535Y-102004761D01*
X155043154Y-101909523D01*
X155043154Y-101814285D01*
X154995535Y-101719047D01*
X154900297Y-101671428D01*
X154662202Y-101671428D01*
X154566964Y-101623809D01*
X153662202Y-102004761D02*
X153757440Y-102052380D01*
X153947916Y-102052380D01*
X154043154Y-102004761D01*
X154090773Y-101957142D01*
X154138392Y-101861904D01*
X154138392Y-101576190D01*
X154090773Y-101480952D01*
X154043154Y-101433333D01*
X153947916Y-101385714D01*
X153757440Y-101385714D01*
X153662202Y-101433333D01*
X152852678Y-102004761D02*
X152947916Y-102052380D01*
X153138392Y-102052380D01*
X153233630Y-102004761D01*
X153281250Y-101909523D01*
X153281250Y-101528571D01*
X153233630Y-101433333D01*
X153138392Y-101385714D01*
X152947916Y-101385714D01*
X152852678Y-101433333D01*
X152805059Y-101528571D01*
X152805059Y-101623809D01*
X153281250Y-101719047D01*
X190814880Y-106934226D02*
X191814880Y-107600892D01*
X190814880Y-107600892D02*
X191814880Y-106934226D01*
X191148214Y-107838988D02*
X191148214Y-108219940D01*
X190814880Y-107981845D02*
X191672023Y-107981845D01*
X191767261Y-108029464D01*
X191814880Y-108124702D01*
X191814880Y-108219940D01*
X191814880Y-108981845D02*
X191291071Y-108981845D01*
X191195833Y-108934226D01*
X191148214Y-108838988D01*
X191148214Y-108648511D01*
X191195833Y-108553273D01*
X191767261Y-108981845D02*
X191814880Y-108886607D01*
X191814880Y-108648511D01*
X191767261Y-108553273D01*
X191672023Y-108505654D01*
X191576785Y-108505654D01*
X191481547Y-108553273D01*
X191433928Y-108648511D01*
X191433928Y-108886607D01*
X191386309Y-108981845D01*
X191814880Y-109600892D02*
X191767261Y-109505654D01*
X191672023Y-109458035D01*
X190814880Y-109458035D01*
X191814880Y-110505654D02*
X191814880Y-109934226D01*
X191814880Y-110219940D02*
X190814880Y-110219940D01*
X190957738Y-110124702D01*
X191052976Y-110029464D01*
X191100595Y-109934226D01*
X45719642Y-28702380D02*
X45719642Y-29511904D01*
X45672023Y-29607142D01*
X45624404Y-29654761D01*
X45529166Y-29702380D01*
X45338690Y-29702380D01*
X45243452Y-29654761D01*
X45195833Y-29607142D01*
X45148214Y-29511904D01*
X45148214Y-28702380D01*
X44719642Y-29654761D02*
X44576785Y-29702380D01*
X44338690Y-29702380D01*
X44243452Y-29654761D01*
X44195833Y-29607142D01*
X44148214Y-29511904D01*
X44148214Y-29416666D01*
X44195833Y-29321428D01*
X44243452Y-29273809D01*
X44338690Y-29226190D01*
X44529166Y-29178571D01*
X44624404Y-29130952D01*
X44672023Y-29083333D01*
X44719642Y-28988095D01*
X44719642Y-28892857D01*
X44672023Y-28797619D01*
X44624404Y-28750000D01*
X44529166Y-28702380D01*
X44291071Y-28702380D01*
X44148214Y-28750000D01*
X43386309Y-29178571D02*
X43243452Y-29226190D01*
X43195833Y-29273809D01*
X43148214Y-29369047D01*
X43148214Y-29511904D01*
X43195833Y-29607142D01*
X43243452Y-29654761D01*
X43338690Y-29702380D01*
X43719642Y-29702380D01*
X43719642Y-28702380D01*
X43386309Y-28702380D01*
X43291071Y-28750000D01*
X43243452Y-28797619D01*
X43195833Y-28892857D01*
X43195833Y-28988095D01*
X43243452Y-29083333D01*
X43291071Y-29130952D01*
X43386309Y-29178571D01*
X43719642Y-29178571D01*
X42719642Y-29321428D02*
X41957738Y-29321428D01*
X40910119Y-29607142D02*
X40957738Y-29654761D01*
X41100595Y-29702380D01*
X41195833Y-29702380D01*
X41338690Y-29654761D01*
X41433928Y-29559523D01*
X41481547Y-29464285D01*
X41529166Y-29273809D01*
X41529166Y-29130952D01*
X41481547Y-28940476D01*
X41433928Y-28845238D01*
X41338690Y-28750000D01*
X41195833Y-28702380D01*
X41100595Y-28702380D01*
X40957738Y-28750000D01*
X40910119Y-28797619D01*
X39957738Y-29702380D02*
X40529166Y-29702380D01*
X40243452Y-29702380D02*
X40243452Y-28702380D01*
X40338690Y-28845238D01*
X40433928Y-28940476D01*
X40529166Y-28988095D01*
X215292261Y-107410416D02*
X215339880Y-107553273D01*
X215339880Y-107791369D01*
X215292261Y-107886607D01*
X215244642Y-107934226D01*
X215149404Y-107981845D01*
X215054166Y-107981845D01*
X214958928Y-107934226D01*
X214911309Y-107886607D01*
X214863690Y-107791369D01*
X214816071Y-107600892D01*
X214768452Y-107505654D01*
X214720833Y-107458035D01*
X214625595Y-107410416D01*
X214530357Y-107410416D01*
X214435119Y-107458035D01*
X214387500Y-107505654D01*
X214339880Y-107600892D01*
X214339880Y-107838988D01*
X214387500Y-107981845D01*
X214339880Y-108315178D02*
X215339880Y-108553273D01*
X214625595Y-108743750D01*
X215339880Y-108934226D01*
X214339880Y-109172321D01*
X215339880Y-110077083D02*
X215339880Y-109505654D01*
X215339880Y-109791369D02*
X214339880Y-109791369D01*
X214482738Y-109696130D01*
X214577976Y-109600892D01*
X214625595Y-109505654D01*
X40869940Y-28964880D02*
X41203273Y-28488690D01*
X41441369Y-28964880D02*
X41441369Y-27964880D01*
X41060416Y-27964880D01*
X40965178Y-28012500D01*
X40917559Y-28060119D01*
X40869940Y-28155357D01*
X40869940Y-28298214D01*
X40917559Y-28393452D01*
X40965178Y-28441071D01*
X41060416Y-28488690D01*
X41441369Y-28488690D01*
X40012797Y-27964880D02*
X40203273Y-27964880D01*
X40298511Y-28012500D01*
X40346130Y-28060119D01*
X40441369Y-28202976D01*
X40488988Y-28393452D01*
X40488988Y-28774404D01*
X40441369Y-28869642D01*
X40393750Y-28917261D01*
X40298511Y-28964880D01*
X40108035Y-28964880D01*
X40012797Y-28917261D01*
X39965178Y-28869642D01*
X39917559Y-28774404D01*
X39917559Y-28536309D01*
X39965178Y-28441071D01*
X40012797Y-28393452D01*
X40108035Y-28345833D01*
X40298511Y-28345833D01*
X40393750Y-28393452D01*
X40441369Y-28441071D01*
X40488988Y-28536309D01*
X39488988Y-28583928D02*
X38727083Y-28583928D01*
X37774702Y-27964880D02*
X38250892Y-27964880D01*
X38298511Y-28441071D01*
X38250892Y-28393452D01*
X38155654Y-28345833D01*
X37917559Y-28345833D01*
X37822321Y-28393452D01*
X37774702Y-28441071D01*
X37727083Y-28536309D01*
X37727083Y-28774404D01*
X37774702Y-28869642D01*
X37822321Y-28917261D01*
X37917559Y-28964880D01*
X38155654Y-28964880D01*
X38250892Y-28917261D01*
X38298511Y-28869642D01*
X37298511Y-28869642D02*
X37250892Y-28917261D01*
X37298511Y-28964880D01*
X37346130Y-28917261D01*
X37298511Y-28869642D01*
X37298511Y-28964880D01*
X36298511Y-28964880D02*
X36869940Y-28964880D01*
X36584226Y-28964880D02*
X36584226Y-27964880D01*
X36679464Y-28107738D01*
X36774702Y-28202976D01*
X36869940Y-28250595D01*
X48807440Y-32264880D02*
X49140773Y-31788690D01*
X49378869Y-32264880D02*
X49378869Y-31264880D01*
X48997916Y-31264880D01*
X48902678Y-31312500D01*
X48855059Y-31360119D01*
X48807440Y-31455357D01*
X48807440Y-31598214D01*
X48855059Y-31693452D01*
X48902678Y-31741071D01*
X48997916Y-31788690D01*
X49378869Y-31788690D01*
X47902678Y-31264880D02*
X48378869Y-31264880D01*
X48426488Y-31741071D01*
X48378869Y-31693452D01*
X48283630Y-31645833D01*
X48045535Y-31645833D01*
X47950297Y-31693452D01*
X47902678Y-31741071D01*
X47855059Y-31836309D01*
X47855059Y-32074404D01*
X47902678Y-32169642D01*
X47950297Y-32217261D01*
X48045535Y-32264880D01*
X48283630Y-32264880D01*
X48378869Y-32217261D01*
X48426488Y-32169642D01*
X47426488Y-31883928D02*
X46664583Y-31883928D01*
X45712202Y-31264880D02*
X46188392Y-31264880D01*
X46236011Y-31741071D01*
X46188392Y-31693452D01*
X46093154Y-31645833D01*
X45855059Y-31645833D01*
X45759821Y-31693452D01*
X45712202Y-31741071D01*
X45664583Y-31836309D01*
X45664583Y-32074404D01*
X45712202Y-32169642D01*
X45759821Y-32217261D01*
X45855059Y-32264880D01*
X46093154Y-32264880D01*
X46188392Y-32217261D01*
X46236011Y-32169642D01*
X45236011Y-32169642D02*
X45188392Y-32217261D01*
X45236011Y-32264880D01*
X45283630Y-32217261D01*
X45236011Y-32169642D01*
X45236011Y-32264880D01*
X44236011Y-32264880D02*
X44807440Y-32264880D01*
X44521726Y-32264880D02*
X44521726Y-31264880D01*
X44616964Y-31407738D01*
X44712202Y-31502976D01*
X44807440Y-31550595D01*
X185300595Y-102114880D02*
X185633928Y-101638690D01*
X185872023Y-102114880D02*
X185872023Y-101114880D01*
X185491071Y-101114880D01*
X185395833Y-101162500D01*
X185348214Y-101210119D01*
X185300595Y-101305357D01*
X185300595Y-101448214D01*
X185348214Y-101543452D01*
X185395833Y-101591071D01*
X185491071Y-101638690D01*
X185872023Y-101638690D01*
X184443452Y-101448214D02*
X184443452Y-102114880D01*
X184681547Y-101067261D02*
X184919642Y-101781547D01*
X184300595Y-101781547D01*
X183919642Y-101733928D02*
X183157738Y-101733928D01*
X182157738Y-102114880D02*
X182729166Y-102114880D01*
X182443452Y-102114880D02*
X182443452Y-101114880D01*
X182538690Y-101257738D01*
X182633928Y-101352976D01*
X182729166Y-101400595D01*
X181538690Y-101114880D02*
X181443452Y-101114880D01*
X181348214Y-101162500D01*
X181300595Y-101210119D01*
X181252976Y-101305357D01*
X181205357Y-101495833D01*
X181205357Y-101733928D01*
X181252976Y-101924404D01*
X181300595Y-102019642D01*
X181348214Y-102067261D01*
X181443452Y-102114880D01*
X181538690Y-102114880D01*
X181633928Y-102067261D01*
X181681547Y-102019642D01*
X181729166Y-101924404D01*
X181776785Y-101733928D01*
X181776785Y-101495833D01*
X181729166Y-101305357D01*
X181681547Y-101210119D01*
X181633928Y-101162500D01*
X181538690Y-101114880D01*
X171600595Y-99608630D02*
X171933928Y-99132440D01*
X172172023Y-99608630D02*
X172172023Y-98608630D01*
X171791071Y-98608630D01*
X171695833Y-98656250D01*
X171648214Y-98703869D01*
X171600595Y-98799107D01*
X171600595Y-98941964D01*
X171648214Y-99037202D01*
X171695833Y-99084821D01*
X171791071Y-99132440D01*
X172172023Y-99132440D01*
X171267261Y-98608630D02*
X170648214Y-98608630D01*
X170981547Y-98989583D01*
X170838690Y-98989583D01*
X170743452Y-99037202D01*
X170695833Y-99084821D01*
X170648214Y-99180059D01*
X170648214Y-99418154D01*
X170695833Y-99513392D01*
X170743452Y-99561011D01*
X170838690Y-99608630D01*
X171124404Y-99608630D01*
X171219642Y-99561011D01*
X171267261Y-99513392D01*
X170219642Y-99227678D02*
X169457738Y-99227678D01*
X169029166Y-98703869D02*
X168981547Y-98656250D01*
X168886309Y-98608630D01*
X168648214Y-98608630D01*
X168552976Y-98656250D01*
X168505357Y-98703869D01*
X168457738Y-98799107D01*
X168457738Y-98894345D01*
X168505357Y-99037202D01*
X169076785Y-99608630D01*
X168457738Y-99608630D01*
X168076785Y-98703869D02*
X168029166Y-98656250D01*
X167933928Y-98608630D01*
X167695833Y-98608630D01*
X167600595Y-98656250D01*
X167552976Y-98703869D01*
X167505357Y-98799107D01*
X167505357Y-98894345D01*
X167552976Y-99037202D01*
X168124404Y-99608630D01*
X167505357Y-99608630D01*
X171600595Y-96433630D02*
X171933928Y-95957440D01*
X172172023Y-96433630D02*
X172172023Y-95433630D01*
X171791071Y-95433630D01*
X171695833Y-95481250D01*
X171648214Y-95528869D01*
X171600595Y-95624107D01*
X171600595Y-95766964D01*
X171648214Y-95862202D01*
X171695833Y-95909821D01*
X171791071Y-95957440D01*
X172172023Y-95957440D01*
X171219642Y-95528869D02*
X171172023Y-95481250D01*
X171076785Y-95433630D01*
X170838690Y-95433630D01*
X170743452Y-95481250D01*
X170695833Y-95528869D01*
X170648214Y-95624107D01*
X170648214Y-95719345D01*
X170695833Y-95862202D01*
X171267261Y-96433630D01*
X170648214Y-96433630D01*
X170219642Y-96052678D02*
X169457738Y-96052678D01*
X169029166Y-95528869D02*
X168981547Y-95481250D01*
X168886309Y-95433630D01*
X168648214Y-95433630D01*
X168552976Y-95481250D01*
X168505357Y-95528869D01*
X168457738Y-95624107D01*
X168457738Y-95719345D01*
X168505357Y-95862202D01*
X169076785Y-96433630D01*
X168457738Y-96433630D01*
X168076785Y-95528869D02*
X168029166Y-95481250D01*
X167933928Y-95433630D01*
X167695833Y-95433630D01*
X167600595Y-95481250D01*
X167552976Y-95528869D01*
X167505357Y-95624107D01*
X167505357Y-95719345D01*
X167552976Y-95862202D01*
X168124404Y-96433630D01*
X167505357Y-96433630D01*
X169219345Y-119577380D02*
X169552678Y-119101190D01*
X169790773Y-119577380D02*
X169790773Y-118577380D01*
X169409821Y-118577380D01*
X169314583Y-118625000D01*
X169266964Y-118672619D01*
X169219345Y-118767857D01*
X169219345Y-118910714D01*
X169266964Y-119005952D01*
X169314583Y-119053571D01*
X169409821Y-119101190D01*
X169790773Y-119101190D01*
X168266964Y-119577380D02*
X168838392Y-119577380D01*
X168552678Y-119577380D02*
X168552678Y-118577380D01*
X168647916Y-118720238D01*
X168743154Y-118815476D01*
X168838392Y-118863095D01*
X167838392Y-119196428D02*
X167076488Y-119196428D01*
X166076488Y-119577380D02*
X166647916Y-119577380D01*
X166362202Y-119577380D02*
X166362202Y-118577380D01*
X166457440Y-118720238D01*
X166552678Y-118815476D01*
X166647916Y-118863095D01*
X165457440Y-118577380D02*
X165362202Y-118577380D01*
X165266964Y-118625000D01*
X165219345Y-118672619D01*
X165171726Y-118767857D01*
X165124107Y-118958333D01*
X165124107Y-119196428D01*
X165171726Y-119386904D01*
X165219345Y-119482142D01*
X165266964Y-119529761D01*
X165362202Y-119577380D01*
X165457440Y-119577380D01*
X165552678Y-119529761D01*
X165600297Y-119482142D01*
X165647916Y-119386904D01*
X165695535Y-119196428D01*
X165695535Y-118958333D01*
X165647916Y-118767857D01*
X165600297Y-118672619D01*
X165552678Y-118625000D01*
X165457440Y-118577380D01*
X320587500Y-102052380D02*
X320587500Y-101385714D01*
X320587500Y-101576190D02*
X320539880Y-101480952D01*
X320492261Y-101433333D01*
X320397023Y-101385714D01*
X320301785Y-101385714D01*
X319968452Y-102052380D02*
X319968452Y-101385714D01*
X319968452Y-101052380D02*
X320016071Y-101100000D01*
X319968452Y-101147619D01*
X319920833Y-101100000D01*
X319968452Y-101052380D01*
X319968452Y-101147619D01*
X319063690Y-101385714D02*
X319063690Y-102195238D01*
X319111309Y-102290476D01*
X319158928Y-102338095D01*
X319254166Y-102385714D01*
X319397023Y-102385714D01*
X319492261Y-102338095D01*
X319063690Y-102004761D02*
X319158928Y-102052380D01*
X319349404Y-102052380D01*
X319444642Y-102004761D01*
X319492261Y-101957142D01*
X319539880Y-101861904D01*
X319539880Y-101576190D01*
X319492261Y-101480952D01*
X319444642Y-101433333D01*
X319349404Y-101385714D01*
X319158928Y-101385714D01*
X319063690Y-101433333D01*
X318587500Y-102052380D02*
X318587500Y-101052380D01*
X318158928Y-102052380D02*
X318158928Y-101528571D01*
X318206547Y-101433333D01*
X318301785Y-101385714D01*
X318444642Y-101385714D01*
X318539880Y-101433333D01*
X318587500Y-101480952D01*
X317825595Y-101385714D02*
X317444642Y-101385714D01*
X317682738Y-101052380D02*
X317682738Y-101909523D01*
X317635119Y-102004761D01*
X317539880Y-102052380D01*
X317444642Y-102052380D01*
X301251785Y-102052380D02*
X301251785Y-101052380D01*
X301251785Y-102004761D02*
X301347023Y-102052380D01*
X301537500Y-102052380D01*
X301632738Y-102004761D01*
X301680357Y-101957142D01*
X301727976Y-101861904D01*
X301727976Y-101576190D01*
X301680357Y-101480952D01*
X301632738Y-101433333D01*
X301537500Y-101385714D01*
X301347023Y-101385714D01*
X301251785Y-101433333D01*
X300632738Y-102052380D02*
X300727976Y-102004761D01*
X300775595Y-101957142D01*
X300823214Y-101861904D01*
X300823214Y-101576190D01*
X300775595Y-101480952D01*
X300727976Y-101433333D01*
X300632738Y-101385714D01*
X300489880Y-101385714D01*
X300394642Y-101433333D01*
X300347023Y-101480952D01*
X300299404Y-101576190D01*
X300299404Y-101861904D01*
X300347023Y-101957142D01*
X300394642Y-102004761D01*
X300489880Y-102052380D01*
X300632738Y-102052380D01*
X299966071Y-101385714D02*
X299775595Y-102052380D01*
X299585119Y-101576190D01*
X299394642Y-102052380D01*
X299204166Y-101385714D01*
X298823214Y-101385714D02*
X298823214Y-102052380D01*
X298823214Y-101480952D02*
X298775595Y-101433333D01*
X298680357Y-101385714D01*
X298537500Y-101385714D01*
X298442261Y-101433333D01*
X298394642Y-101528571D01*
X298394642Y-102052380D01*
X281868452Y-102052380D02*
X281963690Y-102004761D01*
X282011309Y-101909523D01*
X282011309Y-101052380D01*
X281106547Y-102004761D02*
X281201785Y-102052380D01*
X281392261Y-102052380D01*
X281487500Y-102004761D01*
X281535119Y-101909523D01*
X281535119Y-101528571D01*
X281487500Y-101433333D01*
X281392261Y-101385714D01*
X281201785Y-101385714D01*
X281106547Y-101433333D01*
X281058928Y-101528571D01*
X281058928Y-101623809D01*
X281535119Y-101719047D01*
X280773214Y-101385714D02*
X280392261Y-101385714D01*
X280630357Y-102052380D02*
X280630357Y-101195238D01*
X280582738Y-101100000D01*
X280487500Y-101052380D01*
X280392261Y-101052380D01*
X280201785Y-101385714D02*
X279820833Y-101385714D01*
X280058928Y-101052380D02*
X280058928Y-101909523D01*
X280011309Y-102004761D01*
X279916071Y-102052380D01*
X279820833Y-102052380D01*
X251769345Y-102052380D02*
X251769345Y-101385714D01*
X251769345Y-101576190D02*
X251721726Y-101480952D01*
X251674107Y-101433333D01*
X251578869Y-101385714D01*
X251483630Y-101385714D01*
X251388392Y-102147619D02*
X250626488Y-102147619D01*
X249959821Y-102004761D02*
X250055059Y-102052380D01*
X250245535Y-102052380D01*
X250340773Y-102004761D01*
X250388392Y-101957142D01*
X250436011Y-101861904D01*
X250436011Y-101576190D01*
X250388392Y-101480952D01*
X250340773Y-101433333D01*
X250245535Y-101385714D01*
X250055059Y-101385714D01*
X249959821Y-101433333D01*
X249674107Y-101385714D02*
X249293154Y-101385714D01*
X249531250Y-101052380D02*
X249531250Y-101909523D01*
X249483630Y-102004761D01*
X249388392Y-102052380D01*
X249293154Y-102052380D01*
X248959821Y-102052380D02*
X248959821Y-101385714D01*
X248959821Y-101576190D02*
X248912202Y-101480952D01*
X248864583Y-101433333D01*
X248769345Y-101385714D01*
X248674107Y-101385714D01*
X248197916Y-102052380D02*
X248293154Y-102004761D01*
X248340773Y-101909523D01*
X248340773Y-101052380D01*
X84605654Y-102052380D02*
X84700892Y-102004761D01*
X84748511Y-101909523D01*
X84748511Y-101052380D01*
X84462797Y-102147619D02*
X83700892Y-102147619D01*
X83034226Y-102052380D02*
X83034226Y-101528571D01*
X83081845Y-101433333D01*
X83177083Y-101385714D01*
X83367559Y-101385714D01*
X83462797Y-101433333D01*
X83034226Y-102004761D02*
X83129464Y-102052380D01*
X83367559Y-102052380D01*
X83462797Y-102004761D01*
X83510416Y-101909523D01*
X83510416Y-101814285D01*
X83462797Y-101719047D01*
X83367559Y-101671428D01*
X83129464Y-101671428D01*
X83034226Y-101623809D01*
X82415178Y-102052380D02*
X82510416Y-102004761D01*
X82558035Y-101909523D01*
X82558035Y-101052380D01*
X82177083Y-101385714D02*
X81796130Y-101385714D01*
X82034226Y-101052380D02*
X82034226Y-101909523D01*
X81986607Y-102004761D01*
X81891369Y-102052380D01*
X81796130Y-102052380D01*
X60602678Y-101385714D02*
X60412202Y-102052380D01*
X60221726Y-101576190D01*
X60031250Y-102052380D01*
X59840773Y-101385714D01*
X59459821Y-102052380D02*
X59459821Y-101385714D01*
X59459821Y-101052380D02*
X59507440Y-101100000D01*
X59459821Y-101147619D01*
X59412202Y-101100000D01*
X59459821Y-101052380D01*
X59459821Y-101147619D01*
X58983630Y-101385714D02*
X58983630Y-102052380D01*
X58983630Y-101480952D02*
X58936011Y-101433333D01*
X58840773Y-101385714D01*
X58697916Y-101385714D01*
X58602678Y-101433333D01*
X58555059Y-101528571D01*
X58555059Y-102052380D01*
X322063690Y-83002380D02*
X322063690Y-82002380D01*
X321682738Y-82002380D01*
X321587500Y-82050000D01*
X321539880Y-82097619D01*
X321492261Y-82192857D01*
X321492261Y-82335714D01*
X321539880Y-82430952D01*
X321587500Y-82478571D01*
X321682738Y-82526190D01*
X322063690Y-82526190D01*
X321063690Y-83002380D02*
X321063690Y-82335714D01*
X321063690Y-82526190D02*
X321016071Y-82430952D01*
X320968452Y-82383333D01*
X320873214Y-82335714D01*
X320777976Y-82335714D01*
X320444642Y-82335714D02*
X320444642Y-83002380D01*
X320444642Y-82430952D02*
X320397023Y-82383333D01*
X320301785Y-82335714D01*
X320158928Y-82335714D01*
X320063690Y-82383333D01*
X320016071Y-82478571D01*
X320016071Y-83002380D01*
X319682738Y-82335714D02*
X319301785Y-82335714D01*
X319539880Y-82002380D02*
X319539880Y-82859523D01*
X319492261Y-82954761D01*
X319397023Y-83002380D01*
X319301785Y-83002380D01*
X319016071Y-82954761D02*
X318873214Y-83002380D01*
X318635119Y-83002380D01*
X318539880Y-82954761D01*
X318492261Y-82907142D01*
X318444642Y-82811904D01*
X318444642Y-82716666D01*
X318492261Y-82621428D01*
X318539880Y-82573809D01*
X318635119Y-82526190D01*
X318825595Y-82478571D01*
X318920833Y-82430952D01*
X318968452Y-82383333D01*
X319016071Y-82288095D01*
X319016071Y-82192857D01*
X318968452Y-82097619D01*
X318920833Y-82050000D01*
X318825595Y-82002380D01*
X318587500Y-82002380D01*
X318444642Y-82050000D01*
X317587500Y-82954761D02*
X317682738Y-83002380D01*
X317873214Y-83002380D01*
X317968452Y-82954761D01*
X318016071Y-82907142D01*
X318063690Y-82811904D01*
X318063690Y-82526190D01*
X318016071Y-82430952D01*
X317968452Y-82383333D01*
X317873214Y-82335714D01*
X317682738Y-82335714D01*
X317587500Y-82383333D01*
X317158928Y-83002380D02*
X317158928Y-82335714D01*
X317158928Y-82526190D02*
X317111309Y-82430952D01*
X317063690Y-82383333D01*
X316968452Y-82335714D01*
X316873214Y-82335714D01*
X316539880Y-82335714D02*
X316539880Y-83002380D01*
X316539880Y-82430952D02*
X316492261Y-82383333D01*
X316397023Y-82335714D01*
X316254166Y-82335714D01*
X316158928Y-82383333D01*
X316111309Y-82478571D01*
X316111309Y-83002380D01*
X300275595Y-82335714D02*
X300275595Y-83002380D01*
X300704166Y-82335714D02*
X300704166Y-82859523D01*
X300656547Y-82954761D01*
X300561309Y-83002380D01*
X300418452Y-83002380D01*
X300323214Y-82954761D01*
X300275595Y-82907142D01*
X299799404Y-82335714D02*
X299799404Y-83335714D01*
X299799404Y-82383333D02*
X299704166Y-82335714D01*
X299513690Y-82335714D01*
X299418452Y-82383333D01*
X299370833Y-82430952D01*
X299323214Y-82526190D01*
X299323214Y-82811904D01*
X299370833Y-82907142D01*
X299418452Y-82954761D01*
X299513690Y-83002380D01*
X299704166Y-83002380D01*
X299799404Y-82954761D01*
X275724702Y-83002380D02*
X275724702Y-82335714D01*
X275724702Y-82526190D02*
X275677083Y-82430952D01*
X275629464Y-82383333D01*
X275534226Y-82335714D01*
X275438988Y-82335714D01*
X275343750Y-83097619D02*
X274581845Y-83097619D01*
X274391369Y-82954761D02*
X274296130Y-83002380D01*
X274105654Y-83002380D01*
X274010416Y-82954761D01*
X273962797Y-82859523D01*
X273962797Y-82811904D01*
X274010416Y-82716666D01*
X274105654Y-82669047D01*
X274248511Y-82669047D01*
X274343750Y-82621428D01*
X274391369Y-82526190D01*
X274391369Y-82478571D01*
X274343750Y-82383333D01*
X274248511Y-82335714D01*
X274105654Y-82335714D01*
X274010416Y-82383333D01*
X273534226Y-83002380D02*
X273534226Y-82002380D01*
X273105654Y-83002380D02*
X273105654Y-82478571D01*
X273153273Y-82383333D01*
X273248511Y-82335714D01*
X273391369Y-82335714D01*
X273486607Y-82383333D01*
X273534226Y-82430952D01*
X272772321Y-82335714D02*
X272391369Y-82335714D01*
X272629464Y-83002380D02*
X272629464Y-82145238D01*
X272581845Y-82050000D01*
X272486607Y-82002380D01*
X272391369Y-82002380D01*
X272200892Y-82335714D02*
X271819940Y-82335714D01*
X272058035Y-82002380D02*
X272058035Y-82859523D01*
X272010416Y-82954761D01*
X271915178Y-83002380D01*
X271819940Y-83002380D01*
X247221428Y-81954761D02*
X248078571Y-83240476D01*
X228600000Y-82907142D02*
X228552380Y-82954761D01*
X228600000Y-83002380D01*
X228647619Y-82954761D01*
X228600000Y-82907142D01*
X228600000Y-83002380D01*
X209502380Y-82954761D02*
X209502380Y-83002380D01*
X209550000Y-83097619D01*
X209597619Y-83145238D01*
X190833333Y-83002380D02*
X190833333Y-82002380D01*
X190500000Y-82716666D01*
X190166666Y-82002380D01*
X190166666Y-83002380D01*
X171735714Y-83002380D02*
X171735714Y-82002380D01*
X171164285Y-83002380D01*
X171164285Y-82002380D01*
X152328571Y-82478571D02*
X152185714Y-82526190D01*
X152138095Y-82573809D01*
X152090476Y-82669047D01*
X152090476Y-82811904D01*
X152138095Y-82907142D01*
X152185714Y-82954761D01*
X152280952Y-83002380D01*
X152661904Y-83002380D01*
X152661904Y-82002380D01*
X152328571Y-82002380D01*
X152233333Y-82050000D01*
X152185714Y-82097619D01*
X152138095Y-82192857D01*
X152138095Y-82288095D01*
X152185714Y-82383333D01*
X152233333Y-82430952D01*
X152328571Y-82478571D01*
X152661904Y-82478571D01*
X133683333Y-82002380D02*
X133350000Y-83002380D01*
X133016666Y-82002380D01*
X113990476Y-82907142D02*
X114038095Y-82954761D01*
X114180952Y-83002380D01*
X114276190Y-83002380D01*
X114419047Y-82954761D01*
X114514285Y-82859523D01*
X114561904Y-82764285D01*
X114609523Y-82573809D01*
X114609523Y-82430952D01*
X114561904Y-82240476D01*
X114514285Y-82145238D01*
X114419047Y-82050000D01*
X114276190Y-82002380D01*
X114180952Y-82002380D01*
X114038095Y-82050000D01*
X113990476Y-82097619D01*
X95583333Y-82002380D02*
X94916666Y-83002380D01*
X94916666Y-82002380D02*
X95583333Y-83002380D01*
X76533333Y-82002380D02*
X75866666Y-82002380D01*
X76533333Y-83002380D01*
X75866666Y-83002380D01*
X46934226Y-83002380D02*
X47029464Y-82954761D01*
X47077083Y-82859523D01*
X47077083Y-82002380D01*
X46791369Y-83097619D02*
X46029464Y-83097619D01*
X45838988Y-82954761D02*
X45743750Y-83002380D01*
X45553273Y-83002380D01*
X45458035Y-82954761D01*
X45410416Y-82859523D01*
X45410416Y-82811904D01*
X45458035Y-82716666D01*
X45553273Y-82669047D01*
X45696130Y-82669047D01*
X45791369Y-82621428D01*
X45838988Y-82526190D01*
X45838988Y-82478571D01*
X45791369Y-82383333D01*
X45696130Y-82335714D01*
X45553273Y-82335714D01*
X45458035Y-82383333D01*
X44981845Y-83002380D02*
X44981845Y-82002380D01*
X44553273Y-83002380D02*
X44553273Y-82478571D01*
X44600892Y-82383333D01*
X44696130Y-82335714D01*
X44838988Y-82335714D01*
X44934226Y-82383333D01*
X44981845Y-82430952D01*
X44219940Y-82335714D02*
X43838988Y-82335714D01*
X44077083Y-83002380D02*
X44077083Y-82145238D01*
X44029464Y-82050000D01*
X43934226Y-82002380D01*
X43838988Y-82002380D01*
X43648511Y-82335714D02*
X43267559Y-82335714D01*
X43505654Y-82002380D02*
X43505654Y-82859523D01*
X43458035Y-82954761D01*
X43362797Y-83002380D01*
X43267559Y-83002380D01*
X320754166Y-63952380D02*
X320754166Y-62952380D01*
X320373214Y-62952380D01*
X320277976Y-63000000D01*
X320230357Y-63047619D01*
X320182738Y-63142857D01*
X320182738Y-63285714D01*
X320230357Y-63380952D01*
X320277976Y-63428571D01*
X320373214Y-63476190D01*
X320754166Y-63476190D01*
X319325595Y-63285714D02*
X319325595Y-64095238D01*
X319373214Y-64190476D01*
X319420833Y-64238095D01*
X319516071Y-64285714D01*
X319658928Y-64285714D01*
X319754166Y-64238095D01*
X319325595Y-63904761D02*
X319420833Y-63952380D01*
X319611309Y-63952380D01*
X319706547Y-63904761D01*
X319754166Y-63857142D01*
X319801785Y-63761904D01*
X319801785Y-63476190D01*
X319754166Y-63380952D01*
X319706547Y-63333333D01*
X319611309Y-63285714D01*
X319420833Y-63285714D01*
X319325595Y-63333333D01*
X318849404Y-63952380D02*
X318849404Y-62952380D01*
X318611309Y-62952380D01*
X318468452Y-63000000D01*
X318373214Y-63095238D01*
X318325595Y-63190476D01*
X318277976Y-63380952D01*
X318277976Y-63523809D01*
X318325595Y-63714285D01*
X318373214Y-63809523D01*
X318468452Y-63904761D01*
X318611309Y-63952380D01*
X318849404Y-63952380D01*
X317849404Y-63285714D02*
X317849404Y-63952380D01*
X317849404Y-63380952D02*
X317801785Y-63333333D01*
X317706547Y-63285714D01*
X317563690Y-63285714D01*
X317468452Y-63333333D01*
X317420833Y-63428571D01*
X317420833Y-63952380D01*
X289393154Y-63428571D02*
X289059821Y-63428571D01*
X288916964Y-63952380D02*
X289393154Y-63952380D01*
X289393154Y-62952380D01*
X288916964Y-62952380D01*
X288488392Y-63285714D02*
X288488392Y-63952380D01*
X288488392Y-63380952D02*
X288440773Y-63333333D01*
X288345535Y-63285714D01*
X288202678Y-63285714D01*
X288107440Y-63333333D01*
X288059821Y-63428571D01*
X288059821Y-63952380D01*
X287726488Y-63285714D02*
X287345535Y-63285714D01*
X287583630Y-62952380D02*
X287583630Y-63809523D01*
X287536011Y-63904761D01*
X287440773Y-63952380D01*
X287345535Y-63952380D01*
X287012202Y-63952380D02*
X287012202Y-63285714D01*
X287012202Y-63476190D02*
X286964583Y-63380952D01*
X286916964Y-63333333D01*
X286821726Y-63285714D01*
X286726488Y-63285714D01*
X257127380Y-62952380D02*
X257222619Y-63142857D01*
X238077380Y-63904761D02*
X238077380Y-63952380D01*
X238125000Y-64047619D01*
X238172619Y-64095238D01*
X238125000Y-63333333D02*
X238077380Y-63380952D01*
X238125000Y-63428571D01*
X238172619Y-63380952D01*
X238125000Y-63333333D01*
X238125000Y-63428571D01*
X218765476Y-63952380D02*
X219241666Y-63952380D01*
X219241666Y-62952380D01*
X200286904Y-63952380D02*
X200286904Y-62952380D01*
X199715476Y-63952380D02*
X200144047Y-63380952D01*
X199715476Y-62952380D02*
X200286904Y-63523809D01*
X180832142Y-62952380D02*
X180832142Y-63666666D01*
X180879761Y-63809523D01*
X180975000Y-63904761D01*
X181117857Y-63952380D01*
X181213095Y-63952380D01*
X162210714Y-63952380D02*
X162210714Y-62952380D01*
X162210714Y-63428571D02*
X161639285Y-63428571D01*
X161639285Y-63952380D02*
X161639285Y-62952380D01*
X142613095Y-63000000D02*
X142708333Y-62952380D01*
X142851190Y-62952380D01*
X142994047Y-63000000D01*
X143089285Y-63095238D01*
X143136904Y-63190476D01*
X143184523Y-63380952D01*
X143184523Y-63523809D01*
X143136904Y-63714285D01*
X143089285Y-63809523D01*
X142994047Y-63904761D01*
X142851190Y-63952380D01*
X142755952Y-63952380D01*
X142613095Y-63904761D01*
X142565476Y-63857142D01*
X142565476Y-63523809D01*
X142755952Y-63523809D01*
X123682142Y-63428571D02*
X124015476Y-63428571D01*
X124015476Y-63952380D02*
X124015476Y-62952380D01*
X123539285Y-62952380D01*
X105036904Y-63952380D02*
X105036904Y-62952380D01*
X104798809Y-62952380D01*
X104655952Y-63000000D01*
X104560714Y-63095238D01*
X104513095Y-63190476D01*
X104465476Y-63380952D01*
X104465476Y-63523809D01*
X104513095Y-63714285D01*
X104560714Y-63809523D01*
X104655952Y-63904761D01*
X104798809Y-63952380D01*
X105036904Y-63952380D01*
X86010714Y-63904761D02*
X85867857Y-63952380D01*
X85629761Y-63952380D01*
X85534523Y-63904761D01*
X85486904Y-63857142D01*
X85439285Y-63761904D01*
X85439285Y-63666666D01*
X85486904Y-63571428D01*
X85534523Y-63523809D01*
X85629761Y-63476190D01*
X85820238Y-63428571D01*
X85915476Y-63380952D01*
X85963095Y-63333333D01*
X86010714Y-63238095D01*
X86010714Y-63142857D01*
X85963095Y-63047619D01*
X85915476Y-63000000D01*
X85820238Y-62952380D01*
X85582142Y-62952380D01*
X85439285Y-63000000D01*
X66913095Y-63666666D02*
X66436904Y-63666666D01*
X67008333Y-63952380D02*
X66675000Y-62952380D01*
X66341666Y-63952380D01*
X42266964Y-63857142D02*
X42314583Y-63904761D01*
X42457440Y-63952380D01*
X42552678Y-63952380D01*
X42695535Y-63904761D01*
X42790773Y-63809523D01*
X42838392Y-63714285D01*
X42886011Y-63523809D01*
X42886011Y-63380952D01*
X42838392Y-63190476D01*
X42790773Y-63095238D01*
X42695535Y-63000000D01*
X42552678Y-62952380D01*
X42457440Y-62952380D01*
X42314583Y-63000000D01*
X42266964Y-63047619D01*
X41838392Y-63285714D02*
X41838392Y-64285714D01*
X41838392Y-63333333D02*
X41743154Y-63285714D01*
X41552678Y-63285714D01*
X41457440Y-63333333D01*
X41409821Y-63380952D01*
X41362202Y-63476190D01*
X41362202Y-63761904D01*
X41409821Y-63857142D01*
X41457440Y-63904761D01*
X41552678Y-63952380D01*
X41743154Y-63952380D01*
X41838392Y-63904761D01*
X40981250Y-63904761D02*
X40886011Y-63952380D01*
X40695535Y-63952380D01*
X40600297Y-63904761D01*
X40552678Y-63809523D01*
X40552678Y-63761904D01*
X40600297Y-63666666D01*
X40695535Y-63619047D01*
X40838392Y-63619047D01*
X40933630Y-63571428D01*
X40981250Y-63476190D01*
X40981250Y-63428571D01*
X40933630Y-63333333D01*
X40838392Y-63285714D01*
X40695535Y-63285714D01*
X40600297Y-63333333D01*
X39647916Y-63952380D02*
X40124107Y-63952380D01*
X40124107Y-62952380D01*
X38886011Y-63904761D02*
X38981250Y-63952380D01*
X39171726Y-63952380D01*
X39266964Y-63904761D01*
X39314583Y-63857142D01*
X39362202Y-63761904D01*
X39362202Y-63476190D01*
X39314583Y-63380952D01*
X39266964Y-63333333D01*
X39171726Y-63285714D01*
X38981250Y-63285714D01*
X38886011Y-63333333D01*
X38457440Y-63952380D02*
X38457440Y-62952380D01*
X38362202Y-63571428D02*
X38076488Y-63952380D01*
X38076488Y-63285714D02*
X38457440Y-63666666D01*
X320777976Y-44902380D02*
X320777976Y-43902380D01*
X320397023Y-43902380D01*
X320301785Y-43950000D01*
X320254166Y-43997619D01*
X320206547Y-44092857D01*
X320206547Y-44235714D01*
X320254166Y-44330952D01*
X320301785Y-44378571D01*
X320397023Y-44426190D01*
X320777976Y-44426190D01*
X319349404Y-44235714D02*
X319349404Y-45045238D01*
X319397023Y-45140476D01*
X319444642Y-45188095D01*
X319539880Y-45235714D01*
X319682738Y-45235714D01*
X319777976Y-45188095D01*
X319349404Y-44854761D02*
X319444642Y-44902380D01*
X319635119Y-44902380D01*
X319730357Y-44854761D01*
X319777976Y-44807142D01*
X319825595Y-44711904D01*
X319825595Y-44426190D01*
X319777976Y-44330952D01*
X319730357Y-44283333D01*
X319635119Y-44235714D01*
X319444642Y-44235714D01*
X319349404Y-44283333D01*
X318873214Y-43902380D02*
X318873214Y-44711904D01*
X318825595Y-44807142D01*
X318777976Y-44854761D01*
X318682738Y-44902380D01*
X318492261Y-44902380D01*
X318397023Y-44854761D01*
X318349404Y-44807142D01*
X318301785Y-44711904D01*
X318301785Y-43902380D01*
X317825595Y-44235714D02*
X317825595Y-45235714D01*
X317825595Y-44283333D02*
X317730357Y-44235714D01*
X317539880Y-44235714D01*
X317444642Y-44283333D01*
X317397023Y-44330952D01*
X317349404Y-44426190D01*
X317349404Y-44711904D01*
X317397023Y-44807142D01*
X317444642Y-44854761D01*
X317539880Y-44902380D01*
X317730357Y-44902380D01*
X317825595Y-44854761D01*
X295608333Y-45235714D02*
X295608333Y-43807142D01*
X295227380Y-43807142D02*
X294370238Y-45092857D01*
X271652976Y-45235714D02*
X271414880Y-45235714D01*
X271414880Y-43807142D01*
X271652976Y-43807142D01*
X252222023Y-45235714D02*
X252460119Y-45235714D01*
X252460119Y-43807142D01*
X252222023Y-43807142D01*
X233624404Y-44902380D02*
X233624404Y-43902380D01*
X233243452Y-43902380D01*
X233148214Y-43950000D01*
X233100595Y-43997619D01*
X233052976Y-44092857D01*
X233052976Y-44235714D01*
X233100595Y-44330952D01*
X233148214Y-44378571D01*
X233243452Y-44426190D01*
X233624404Y-44426190D01*
X214407738Y-43902380D02*
X214217261Y-43902380D01*
X214122023Y-43950000D01*
X214026785Y-44045238D01*
X213979166Y-44235714D01*
X213979166Y-44569047D01*
X214026785Y-44759523D01*
X214122023Y-44854761D01*
X214217261Y-44902380D01*
X214407738Y-44902380D01*
X214502976Y-44854761D01*
X214598214Y-44759523D01*
X214645833Y-44569047D01*
X214645833Y-44235714D01*
X214598214Y-44045238D01*
X214502976Y-43950000D01*
X214407738Y-43902380D01*
X195262500Y-44902380D02*
X195262500Y-43902380D01*
X176498214Y-43902380D02*
X176498214Y-44711904D01*
X176450595Y-44807142D01*
X176402976Y-44854761D01*
X176307738Y-44902380D01*
X176117261Y-44902380D01*
X176022023Y-44854761D01*
X175974404Y-44807142D01*
X175926785Y-44711904D01*
X175926785Y-43902380D01*
X157162500Y-44426190D02*
X157162500Y-44902380D01*
X157495833Y-43902380D02*
X157162500Y-44426190D01*
X156829166Y-43902380D01*
X138398214Y-43902380D02*
X137826785Y-43902380D01*
X138112500Y-44902380D02*
X138112500Y-43902380D01*
X118752976Y-44902380D02*
X119086309Y-44426190D01*
X119324404Y-44902380D02*
X119324404Y-43902380D01*
X118943452Y-43902380D01*
X118848214Y-43950000D01*
X118800595Y-43997619D01*
X118752976Y-44092857D01*
X118752976Y-44235714D01*
X118800595Y-44330952D01*
X118848214Y-44378571D01*
X118943452Y-44426190D01*
X119324404Y-44426190D01*
X100226785Y-44378571D02*
X99893452Y-44378571D01*
X99750595Y-44902380D02*
X100226785Y-44902380D01*
X100226785Y-43902380D01*
X99750595Y-43902380D01*
X81391071Y-43902380D02*
X81152976Y-44902380D01*
X80962500Y-44188095D01*
X80772023Y-44902380D01*
X80533928Y-43902380D01*
X61531547Y-44997619D02*
X61626785Y-44950000D01*
X61722023Y-44854761D01*
X61864880Y-44711904D01*
X61960119Y-44664285D01*
X62055357Y-44664285D01*
X62007738Y-44902380D02*
X62102976Y-44854761D01*
X62198214Y-44759523D01*
X62245833Y-44569047D01*
X62245833Y-44235714D01*
X62198214Y-44045238D01*
X62102976Y-43950000D01*
X62007738Y-43902380D01*
X61817261Y-43902380D01*
X61722023Y-43950000D01*
X61626785Y-44045238D01*
X61579166Y-44235714D01*
X61579166Y-44569047D01*
X61626785Y-44759523D01*
X61722023Y-44854761D01*
X61817261Y-44902380D01*
X62007738Y-44902380D01*
X39290476Y-43902380D02*
X38719047Y-43902380D01*
X39004761Y-44902380D02*
X39004761Y-43902380D01*
X37957142Y-44902380D02*
X37957142Y-44378571D01*
X38004761Y-44283333D01*
X38100000Y-44235714D01*
X38290476Y-44235714D01*
X38385714Y-44283333D01*
X37957142Y-44854761D02*
X38052380Y-44902380D01*
X38290476Y-44902380D01*
X38385714Y-44854761D01*
X38433333Y-44759523D01*
X38433333Y-44664285D01*
X38385714Y-44569047D01*
X38290476Y-44521428D01*
X38052380Y-44521428D01*
X37957142Y-44473809D01*
X37480952Y-44902380D02*
X37480952Y-43902380D01*
X37480952Y-44283333D02*
X37385714Y-44235714D01*
X37195238Y-44235714D01*
X37100000Y-44283333D01*
X37052380Y-44330952D01*
X37004761Y-44426190D01*
X37004761Y-44711904D01*
X37052380Y-44807142D01*
X37100000Y-44854761D01*
X37195238Y-44902380D01*
X37385714Y-44902380D01*
X37480952Y-44854761D01*
X320039880Y-25852380D02*
X320039880Y-24852380D01*
X319801785Y-24852380D01*
X319658928Y-24900000D01*
X319563690Y-24995238D01*
X319516071Y-25090476D01*
X319468452Y-25280952D01*
X319468452Y-25423809D01*
X319516071Y-25614285D01*
X319563690Y-25709523D01*
X319658928Y-25804761D01*
X319801785Y-25852380D01*
X320039880Y-25852380D01*
X318658928Y-25804761D02*
X318754166Y-25852380D01*
X318944642Y-25852380D01*
X319039880Y-25804761D01*
X319087500Y-25709523D01*
X319087500Y-25328571D01*
X319039880Y-25233333D01*
X318944642Y-25185714D01*
X318754166Y-25185714D01*
X318658928Y-25233333D01*
X318611309Y-25328571D01*
X318611309Y-25423809D01*
X319087500Y-25519047D01*
X318039880Y-25852380D02*
X318135119Y-25804761D01*
X318182738Y-25709523D01*
X318182738Y-24852380D01*
X292631547Y-25328571D02*
X292488690Y-25376190D01*
X292441071Y-25423809D01*
X292393452Y-25519047D01*
X292393452Y-25661904D01*
X292441071Y-25757142D01*
X292488690Y-25804761D01*
X292583928Y-25852380D01*
X292964880Y-25852380D01*
X292964880Y-24852380D01*
X292631547Y-24852380D01*
X292536309Y-24900000D01*
X292488690Y-24947619D01*
X292441071Y-25042857D01*
X292441071Y-25138095D01*
X292488690Y-25233333D01*
X292536309Y-25280952D01*
X292631547Y-25328571D01*
X292964880Y-25328571D01*
X291536309Y-25804761D02*
X291631547Y-25852380D01*
X291822023Y-25852380D01*
X291917261Y-25804761D01*
X291964880Y-25757142D01*
X292012500Y-25661904D01*
X292012500Y-25376190D01*
X291964880Y-25280952D01*
X291917261Y-25233333D01*
X291822023Y-25185714D01*
X291631547Y-25185714D01*
X291536309Y-25233333D01*
X291107738Y-25852380D02*
X291107738Y-24852380D01*
X291012500Y-25471428D02*
X290726785Y-25852380D01*
X290726785Y-25185714D02*
X291107738Y-25566666D01*
X290345833Y-25804761D02*
X290202976Y-25852380D01*
X289964880Y-25852380D01*
X289869642Y-25804761D01*
X289822023Y-25757142D01*
X289774404Y-25661904D01*
X289774404Y-25566666D01*
X289822023Y-25471428D01*
X289869642Y-25423809D01*
X289964880Y-25376190D01*
X290155357Y-25328571D01*
X290250595Y-25280952D01*
X290298214Y-25233333D01*
X290345833Y-25138095D01*
X290345833Y-25042857D01*
X290298214Y-24947619D01*
X290250595Y-24900000D01*
X290155357Y-24852380D01*
X289917261Y-24852380D01*
X289774404Y-24900000D01*
X289345833Y-25185714D02*
X289345833Y-26185714D01*
X289345833Y-25233333D02*
X289250595Y-25185714D01*
X289060119Y-25185714D01*
X288964880Y-25233333D01*
X288917261Y-25280952D01*
X288869642Y-25376190D01*
X288869642Y-25661904D01*
X288917261Y-25757142D01*
X288964880Y-25804761D01*
X289060119Y-25852380D01*
X289250595Y-25852380D01*
X289345833Y-25804761D01*
X288012500Y-25804761D02*
X288107738Y-25852380D01*
X288298214Y-25852380D01*
X288393452Y-25804761D01*
X288441071Y-25757142D01*
X288488690Y-25661904D01*
X288488690Y-25376190D01*
X288441071Y-25280952D01*
X288393452Y-25233333D01*
X288298214Y-25185714D01*
X288107738Y-25185714D01*
X288012500Y-25233333D01*
X262318452Y-25328571D02*
X261556547Y-25328571D01*
X261556547Y-25614285D02*
X262318452Y-25614285D01*
X243268452Y-25471428D02*
X242506547Y-25471428D01*
X224623214Y-25185714D02*
X223908928Y-25185714D01*
X224337500Y-24757142D02*
X224623214Y-26042857D01*
X224004166Y-25614285D02*
X224718452Y-25614285D01*
X224289880Y-26042857D02*
X224004166Y-24757142D01*
X223385119Y-24852380D02*
X223289880Y-24852380D01*
X223194642Y-24900000D01*
X223147023Y-24947619D01*
X223099404Y-25042857D01*
X223051785Y-25233333D01*
X223051785Y-25471428D01*
X223099404Y-25661904D01*
X223147023Y-25757142D01*
X223194642Y-25804761D01*
X223289880Y-25852380D01*
X223385119Y-25852380D01*
X223480357Y-25804761D01*
X223527976Y-25757142D01*
X223575595Y-25661904D01*
X223623214Y-25471428D01*
X223623214Y-25233333D01*
X223575595Y-25042857D01*
X223527976Y-24947619D01*
X223480357Y-24900000D01*
X223385119Y-24852380D01*
X205573214Y-25185714D02*
X204858928Y-25185714D01*
X205287500Y-24757142D02*
X205573214Y-26042857D01*
X204954166Y-25614285D02*
X205668452Y-25614285D01*
X205239880Y-26042857D02*
X204954166Y-24757142D01*
X204477976Y-25852380D02*
X204287500Y-25852380D01*
X204192261Y-25804761D01*
X204144642Y-25757142D01*
X204049404Y-25614285D01*
X204001785Y-25423809D01*
X204001785Y-25042857D01*
X204049404Y-24947619D01*
X204097023Y-24900000D01*
X204192261Y-24852380D01*
X204382738Y-24852380D01*
X204477976Y-24900000D01*
X204525595Y-24947619D01*
X204573214Y-25042857D01*
X204573214Y-25280952D01*
X204525595Y-25376190D01*
X204477976Y-25423809D01*
X204382738Y-25471428D01*
X204192261Y-25471428D01*
X204097023Y-25423809D01*
X204049404Y-25376190D01*
X204001785Y-25280952D01*
X186523214Y-25185714D02*
X185808928Y-25185714D01*
X186237500Y-24757142D02*
X186523214Y-26042857D01*
X185904166Y-25614285D02*
X186618452Y-25614285D01*
X186189880Y-26042857D02*
X185904166Y-24757142D01*
X185332738Y-25280952D02*
X185427976Y-25233333D01*
X185475595Y-25185714D01*
X185523214Y-25090476D01*
X185523214Y-25042857D01*
X185475595Y-24947619D01*
X185427976Y-24900000D01*
X185332738Y-24852380D01*
X185142261Y-24852380D01*
X185047023Y-24900000D01*
X184999404Y-24947619D01*
X184951785Y-25042857D01*
X184951785Y-25090476D01*
X184999404Y-25185714D01*
X185047023Y-25233333D01*
X185142261Y-25280952D01*
X185332738Y-25280952D01*
X185427976Y-25328571D01*
X185475595Y-25376190D01*
X185523214Y-25471428D01*
X185523214Y-25661904D01*
X185475595Y-25757142D01*
X185427976Y-25804761D01*
X185332738Y-25852380D01*
X185142261Y-25852380D01*
X185047023Y-25804761D01*
X184999404Y-25757142D01*
X184951785Y-25661904D01*
X184951785Y-25471428D01*
X184999404Y-25376190D01*
X185047023Y-25328571D01*
X185142261Y-25280952D01*
X167473214Y-25185714D02*
X166758928Y-25185714D01*
X167187500Y-24757142D02*
X167473214Y-26042857D01*
X166854166Y-25614285D02*
X167568452Y-25614285D01*
X167139880Y-26042857D02*
X166854166Y-24757142D01*
X166520833Y-24852380D02*
X165854166Y-24852380D01*
X166282738Y-25852380D01*
X148423214Y-25185714D02*
X147708928Y-25185714D01*
X148137500Y-24757142D02*
X148423214Y-26042857D01*
X147804166Y-25614285D02*
X148518452Y-25614285D01*
X148089880Y-26042857D02*
X147804166Y-24757142D01*
X146947023Y-24852380D02*
X147137500Y-24852380D01*
X147232738Y-24900000D01*
X147280357Y-24947619D01*
X147375595Y-25090476D01*
X147423214Y-25280952D01*
X147423214Y-25661904D01*
X147375595Y-25757142D01*
X147327976Y-25804761D01*
X147232738Y-25852380D01*
X147042261Y-25852380D01*
X146947023Y-25804761D01*
X146899404Y-25757142D01*
X146851785Y-25661904D01*
X146851785Y-25423809D01*
X146899404Y-25328571D01*
X146947023Y-25280952D01*
X147042261Y-25233333D01*
X147232738Y-25233333D01*
X147327976Y-25280952D01*
X147375595Y-25328571D01*
X147423214Y-25423809D01*
X129373214Y-25185714D02*
X128658928Y-25185714D01*
X129087500Y-24757142D02*
X129373214Y-26042857D01*
X128754166Y-25614285D02*
X129468452Y-25614285D01*
X129039880Y-26042857D02*
X128754166Y-24757142D01*
X127849404Y-24852380D02*
X128325595Y-24852380D01*
X128373214Y-25328571D01*
X128325595Y-25280952D01*
X128230357Y-25233333D01*
X127992261Y-25233333D01*
X127897023Y-25280952D01*
X127849404Y-25328571D01*
X127801785Y-25423809D01*
X127801785Y-25661904D01*
X127849404Y-25757142D01*
X127897023Y-25804761D01*
X127992261Y-25852380D01*
X128230357Y-25852380D01*
X128325595Y-25804761D01*
X128373214Y-25757142D01*
X110323214Y-25185714D02*
X109608928Y-25185714D01*
X110037500Y-24757142D02*
X110323214Y-26042857D01*
X109704166Y-25614285D02*
X110418452Y-25614285D01*
X109989880Y-26042857D02*
X109704166Y-24757142D01*
X108847023Y-25185714D02*
X108847023Y-25852380D01*
X109085119Y-24804761D02*
X109323214Y-25519047D01*
X108704166Y-25519047D01*
X91273214Y-25185714D02*
X90558928Y-25185714D01*
X90987500Y-24757142D02*
X91273214Y-26042857D01*
X90654166Y-25614285D02*
X91368452Y-25614285D01*
X90939880Y-26042857D02*
X90654166Y-24757142D01*
X90320833Y-24852380D02*
X89701785Y-24852380D01*
X90035119Y-25233333D01*
X89892261Y-25233333D01*
X89797023Y-25280952D01*
X89749404Y-25328571D01*
X89701785Y-25423809D01*
X89701785Y-25661904D01*
X89749404Y-25757142D01*
X89797023Y-25804761D01*
X89892261Y-25852380D01*
X90177976Y-25852380D01*
X90273214Y-25804761D01*
X90320833Y-25757142D01*
X72223214Y-25185714D02*
X71508928Y-25185714D01*
X71937500Y-24757142D02*
X72223214Y-26042857D01*
X71604166Y-25614285D02*
X72318452Y-25614285D01*
X71889880Y-26042857D02*
X71604166Y-24757142D01*
X71223214Y-24947619D02*
X71175595Y-24900000D01*
X71080357Y-24852380D01*
X70842261Y-24852380D01*
X70747023Y-24900000D01*
X70699404Y-24947619D01*
X70651785Y-25042857D01*
X70651785Y-25138095D01*
X70699404Y-25280952D01*
X71270833Y-25852380D01*
X70651785Y-25852380D01*
X53173214Y-41060714D02*
X52458928Y-41060714D01*
X52887500Y-40632142D02*
X53173214Y-41917857D01*
X52554166Y-41489285D02*
X53268452Y-41489285D01*
X52839880Y-41917857D02*
X52554166Y-40632142D01*
X51601785Y-41727380D02*
X52173214Y-41727380D01*
X51887500Y-41727380D02*
X51887500Y-40727380D01*
X51982738Y-40870238D01*
X52077976Y-40965476D01*
X52173214Y-41013095D01*
X34385119Y-41203571D02*
X34051785Y-41203571D01*
X33908928Y-41727380D02*
X34385119Y-41727380D01*
X34385119Y-40727380D01*
X33908928Y-40727380D01*
X33527976Y-41679761D02*
X33432738Y-41727380D01*
X33242261Y-41727380D01*
X33147023Y-41679761D01*
X33099404Y-41584523D01*
X33099404Y-41536904D01*
X33147023Y-41441666D01*
X33242261Y-41394047D01*
X33385119Y-41394047D01*
X33480357Y-41346428D01*
X33527976Y-41251190D01*
X33527976Y-41203571D01*
X33480357Y-41108333D01*
X33385119Y-41060714D01*
X33242261Y-41060714D01*
X33147023Y-41108333D01*
X32242261Y-41679761D02*
X32337500Y-41727380D01*
X32527976Y-41727380D01*
X32623214Y-41679761D01*
X32670833Y-41632142D01*
X32718452Y-41536904D01*
X32718452Y-41251190D01*
X32670833Y-41155952D01*
X32623214Y-41108333D01*
X32527976Y-41060714D01*
X32337500Y-41060714D01*
X32242261Y-41108333D01*
X220439880Y-103484821D02*
X219439880Y-103484821D01*
X220154166Y-103818154D01*
X219439880Y-104151488D01*
X220439880Y-104151488D01*
X220439880Y-104627678D02*
X219439880Y-104627678D01*
X220392261Y-105056250D02*
X220439880Y-105199107D01*
X220439880Y-105437202D01*
X220392261Y-105532440D01*
X220344642Y-105580059D01*
X220249404Y-105627678D01*
X220154166Y-105627678D01*
X220058928Y-105580059D01*
X220011309Y-105532440D01*
X219963690Y-105437202D01*
X219916071Y-105246726D01*
X219868452Y-105151488D01*
X219820833Y-105103869D01*
X219725595Y-105056250D01*
X219630357Y-105056250D01*
X219535119Y-105103869D01*
X219487500Y-105151488D01*
X219439880Y-105246726D01*
X219439880Y-105484821D01*
X219487500Y-105627678D01*
X219439880Y-106246726D02*
X219439880Y-106437202D01*
X219487500Y-106532440D01*
X219582738Y-106627678D01*
X219773214Y-106675297D01*
X220106547Y-106675297D01*
X220297023Y-106627678D01*
X220392261Y-106532440D01*
X220439880Y-106437202D01*
X220439880Y-106246726D01*
X220392261Y-106151488D01*
X220297023Y-106056250D01*
X220106547Y-106008630D01*
X219773214Y-106008630D01*
X219582738Y-106056250D01*
X219487500Y-106151488D01*
X219439880Y-106246726D01*
X219439880Y-95472916D02*
X220439880Y-95806250D01*
X219439880Y-96139583D01*
X220344642Y-97044345D02*
X220392261Y-96996726D01*
X220439880Y-96853869D01*
X220439880Y-96758630D01*
X220392261Y-96615773D01*
X220297023Y-96520535D01*
X220201785Y-96472916D01*
X220011309Y-96425297D01*
X219868452Y-96425297D01*
X219677976Y-96472916D01*
X219582738Y-96520535D01*
X219487500Y-96615773D01*
X219439880Y-96758630D01*
X219439880Y-96853869D01*
X219487500Y-96996726D01*
X219535119Y-97044345D01*
X220344642Y-98044345D02*
X220392261Y-97996726D01*
X220439880Y-97853869D01*
X220439880Y-97758630D01*
X220392261Y-97615773D01*
X220297023Y-97520535D01*
X220201785Y-97472916D01*
X220011309Y-97425297D01*
X219868452Y-97425297D01*
X219677976Y-97472916D01*
X219582738Y-97520535D01*
X219487500Y-97615773D01*
X219439880Y-97758630D01*
X219439880Y-97853869D01*
X219487500Y-97996726D01*
X219535119Y-98044345D01*
X217892261Y-103520535D02*
X217939880Y-103663392D01*
X217939880Y-103901488D01*
X217892261Y-103996726D01*
X217844642Y-104044345D01*
X217749404Y-104091964D01*
X217654166Y-104091964D01*
X217558928Y-104044345D01*
X217511309Y-103996726D01*
X217463690Y-103901488D01*
X217416071Y-103711011D01*
X217368452Y-103615773D01*
X217320833Y-103568154D01*
X217225595Y-103520535D01*
X217130357Y-103520535D01*
X217035119Y-103568154D01*
X216987500Y-103615773D01*
X216939880Y-103711011D01*
X216939880Y-103949107D01*
X216987500Y-104091964D01*
X217844642Y-105091964D02*
X217892261Y-105044345D01*
X217939880Y-104901488D01*
X217939880Y-104806250D01*
X217892261Y-104663392D01*
X217797023Y-104568154D01*
X217701785Y-104520535D01*
X217511309Y-104472916D01*
X217368452Y-104472916D01*
X217177976Y-104520535D01*
X217082738Y-104568154D01*
X216987500Y-104663392D01*
X216939880Y-104806250D01*
X216939880Y-104901488D01*
X216987500Y-105044345D01*
X217035119Y-105091964D01*
X217939880Y-105520535D02*
X216939880Y-105520535D01*
X217939880Y-106091964D02*
X217368452Y-105663392D01*
X216939880Y-106091964D02*
X217511309Y-105520535D01*
X217939880Y-94984821D02*
X216939880Y-94984821D01*
X217654166Y-95318154D01*
X216939880Y-95651488D01*
X217939880Y-95651488D01*
X216939880Y-96318154D02*
X216939880Y-96508630D01*
X216987500Y-96603869D01*
X217082738Y-96699107D01*
X217273214Y-96746726D01*
X217606547Y-96746726D01*
X217797023Y-96699107D01*
X217892261Y-96603869D01*
X217939880Y-96508630D01*
X217939880Y-96318154D01*
X217892261Y-96222916D01*
X217797023Y-96127678D01*
X217606547Y-96080059D01*
X217273214Y-96080059D01*
X217082738Y-96127678D01*
X216987500Y-96222916D01*
X216939880Y-96318154D01*
X217892261Y-97127678D02*
X217939880Y-97270535D01*
X217939880Y-97508630D01*
X217892261Y-97603869D01*
X217844642Y-97651488D01*
X217749404Y-97699107D01*
X217654166Y-97699107D01*
X217558928Y-97651488D01*
X217511309Y-97603869D01*
X217463690Y-97508630D01*
X217416071Y-97318154D01*
X217368452Y-97222916D01*
X217320833Y-97175297D01*
X217225595Y-97127678D01*
X217130357Y-97127678D01*
X217035119Y-97175297D01*
X216987500Y-97222916D01*
X216939880Y-97318154D01*
X216939880Y-97556250D01*
X216987500Y-97699107D01*
X217939880Y-98127678D02*
X216939880Y-98127678D01*
X215439880Y-104508630D02*
X214963690Y-104175297D01*
X215439880Y-103937202D02*
X214439880Y-103937202D01*
X214439880Y-104318154D01*
X214487500Y-104413392D01*
X214535119Y-104461011D01*
X214630357Y-104508630D01*
X214773214Y-104508630D01*
X214868452Y-104461011D01*
X214916071Y-104413392D01*
X214963690Y-104318154D01*
X214963690Y-103937202D01*
X215392261Y-104889583D02*
X215439880Y-105032440D01*
X215439880Y-105270535D01*
X215392261Y-105365773D01*
X215344642Y-105413392D01*
X215249404Y-105461011D01*
X215154166Y-105461011D01*
X215058928Y-105413392D01*
X215011309Y-105365773D01*
X214963690Y-105270535D01*
X214916071Y-105080059D01*
X214868452Y-104984821D01*
X214820833Y-104937202D01*
X214725595Y-104889583D01*
X214630357Y-104889583D01*
X214535119Y-104937202D01*
X214487500Y-104984821D01*
X214439880Y-105080059D01*
X214439880Y-105318154D01*
X214487500Y-105461011D01*
X214439880Y-105746726D02*
X214439880Y-106318154D01*
X215439880Y-106032440D02*
X214439880Y-106032440D01*
X214487500Y-95794345D02*
X214439880Y-95699107D01*
X214439880Y-95556250D01*
X214487500Y-95413392D01*
X214582738Y-95318154D01*
X214677976Y-95270535D01*
X214868452Y-95222916D01*
X215011309Y-95222916D01*
X215201785Y-95270535D01*
X215297023Y-95318154D01*
X215392261Y-95413392D01*
X215439880Y-95556250D01*
X215439880Y-95651488D01*
X215392261Y-95794345D01*
X215344642Y-95841964D01*
X215011309Y-95841964D01*
X215011309Y-95651488D01*
X215439880Y-96270535D02*
X214439880Y-96270535D01*
X215439880Y-96841964D01*
X214439880Y-96841964D01*
X215439880Y-97318154D02*
X214439880Y-97318154D01*
X214439880Y-97556250D01*
X214487500Y-97699107D01*
X214582738Y-97794345D01*
X214677976Y-97841964D01*
X214868452Y-97889583D01*
X215011309Y-97889583D01*
X215201785Y-97841964D01*
X215297023Y-97794345D01*
X215392261Y-97699107D01*
X215439880Y-97556250D01*
X215439880Y-97318154D01*
X43817321Y-40147916D02*
X43817321Y-39814583D01*
X44341130Y-39814583D02*
X43341130Y-39814583D01*
X43341130Y-40290773D01*
X44341130Y-41195535D02*
X44341130Y-40624107D01*
X44341130Y-40909821D02*
X43341130Y-40909821D01*
X43483988Y-40814583D01*
X43579226Y-40719345D01*
X43626845Y-40624107D01*
X45592857Y-36192261D02*
X45688095Y-36239880D01*
X45878571Y-36239880D01*
X45973809Y-36192261D01*
X46021428Y-36097023D01*
X46021428Y-35716071D01*
X45973809Y-35620833D01*
X45878571Y-35573214D01*
X45688095Y-35573214D01*
X45592857Y-35620833D01*
X45545238Y-35716071D01*
X45545238Y-35811309D01*
X46021428Y-35906547D01*
X45164285Y-36192261D02*
X45069047Y-36239880D01*
X44878571Y-36239880D01*
X44783333Y-36192261D01*
X44735714Y-36097023D01*
X44735714Y-36049404D01*
X44783333Y-35954166D01*
X44878571Y-35906547D01*
X45021428Y-35906547D01*
X45116666Y-35858928D01*
X45164285Y-35763690D01*
X45164285Y-35716071D01*
X45116666Y-35620833D01*
X45021428Y-35573214D01*
X44878571Y-35573214D01*
X44783333Y-35620833D01*
X43878571Y-36239880D02*
X43878571Y-35239880D01*
X43878571Y-36192261D02*
X43973809Y-36239880D01*
X44164285Y-36239880D01*
X44259523Y-36192261D01*
X44307142Y-36144642D01*
X44354761Y-36049404D01*
X44354761Y-35763690D01*
X44307142Y-35668452D01*
X44259523Y-35620833D01*
X44164285Y-35573214D01*
X43973809Y-35573214D01*
X43878571Y-35620833D01*
X42878571Y-36239880D02*
X43450000Y-36239880D01*
X43164285Y-36239880D02*
X43164285Y-35239880D01*
X43259523Y-35382738D01*
X43354761Y-35477976D01*
X43450000Y-35525595D01*
X323889880Y-113085714D02*
X322889880Y-113085714D01*
X322889880Y-113323809D01*
X322937500Y-113466666D01*
X323032738Y-113561904D01*
X323127976Y-113609523D01*
X323318452Y-113657142D01*
X323461309Y-113657142D01*
X323651785Y-113609523D01*
X323747023Y-113561904D01*
X323842261Y-113466666D01*
X323889880Y-113323809D01*
X323889880Y-113085714D01*
X322889880Y-114514285D02*
X322889880Y-114323809D01*
X322937500Y-114228571D01*
X322985119Y-114180952D01*
X323127976Y-114085714D01*
X323318452Y-114038095D01*
X323699404Y-114038095D01*
X323794642Y-114085714D01*
X323842261Y-114133333D01*
X323889880Y-114228571D01*
X323889880Y-114419047D01*
X323842261Y-114514285D01*
X323794642Y-114561904D01*
X323699404Y-114609523D01*
X323461309Y-114609523D01*
X323366071Y-114561904D01*
X323318452Y-114514285D01*
X323270833Y-114419047D01*
X323270833Y-114228571D01*
X323318452Y-114133333D01*
X323366071Y-114085714D01*
X323461309Y-114038095D01*
X322889880Y-114942857D02*
X322889880Y-115609523D01*
X323889880Y-115180952D01*
X304839880Y-113085714D02*
X303839880Y-113085714D01*
X303839880Y-113323809D01*
X303887500Y-113466666D01*
X303982738Y-113561904D01*
X304077976Y-113609523D01*
X304268452Y-113657142D01*
X304411309Y-113657142D01*
X304601785Y-113609523D01*
X304697023Y-113561904D01*
X304792261Y-113466666D01*
X304839880Y-113323809D01*
X304839880Y-113085714D01*
X303839880Y-114514285D02*
X303839880Y-114323809D01*
X303887500Y-114228571D01*
X303935119Y-114180952D01*
X304077976Y-114085714D01*
X304268452Y-114038095D01*
X304649404Y-114038095D01*
X304744642Y-114085714D01*
X304792261Y-114133333D01*
X304839880Y-114228571D01*
X304839880Y-114419047D01*
X304792261Y-114514285D01*
X304744642Y-114561904D01*
X304649404Y-114609523D01*
X304411309Y-114609523D01*
X304316071Y-114561904D01*
X304268452Y-114514285D01*
X304220833Y-114419047D01*
X304220833Y-114228571D01*
X304268452Y-114133333D01*
X304316071Y-114085714D01*
X304411309Y-114038095D01*
X303839880Y-115466666D02*
X303839880Y-115276190D01*
X303887500Y-115180952D01*
X303935119Y-115133333D01*
X304077976Y-115038095D01*
X304268452Y-114990476D01*
X304649404Y-114990476D01*
X304744642Y-115038095D01*
X304792261Y-115085714D01*
X304839880Y-115180952D01*
X304839880Y-115371428D01*
X304792261Y-115466666D01*
X304744642Y-115514285D01*
X304649404Y-115561904D01*
X304411309Y-115561904D01*
X304316071Y-115514285D01*
X304268452Y-115466666D01*
X304220833Y-115371428D01*
X304220833Y-115180952D01*
X304268452Y-115085714D01*
X304316071Y-115038095D01*
X304411309Y-114990476D01*
X285789880Y-113085714D02*
X284789880Y-113085714D01*
X284789880Y-113323809D01*
X284837500Y-113466666D01*
X284932738Y-113561904D01*
X285027976Y-113609523D01*
X285218452Y-113657142D01*
X285361309Y-113657142D01*
X285551785Y-113609523D01*
X285647023Y-113561904D01*
X285742261Y-113466666D01*
X285789880Y-113323809D01*
X285789880Y-113085714D01*
X284789880Y-114514285D02*
X284789880Y-114323809D01*
X284837500Y-114228571D01*
X284885119Y-114180952D01*
X285027976Y-114085714D01*
X285218452Y-114038095D01*
X285599404Y-114038095D01*
X285694642Y-114085714D01*
X285742261Y-114133333D01*
X285789880Y-114228571D01*
X285789880Y-114419047D01*
X285742261Y-114514285D01*
X285694642Y-114561904D01*
X285599404Y-114609523D01*
X285361309Y-114609523D01*
X285266071Y-114561904D01*
X285218452Y-114514285D01*
X285170833Y-114419047D01*
X285170833Y-114228571D01*
X285218452Y-114133333D01*
X285266071Y-114085714D01*
X285361309Y-114038095D01*
X284789880Y-115514285D02*
X284789880Y-115038095D01*
X285266071Y-114990476D01*
X285218452Y-115038095D01*
X285170833Y-115133333D01*
X285170833Y-115371428D01*
X285218452Y-115466666D01*
X285266071Y-115514285D01*
X285361309Y-115561904D01*
X285599404Y-115561904D01*
X285694642Y-115514285D01*
X285742261Y-115466666D01*
X285789880Y-115371428D01*
X285789880Y-115133333D01*
X285742261Y-115038095D01*
X285694642Y-114990476D01*
X254833630Y-113085714D02*
X253833630Y-113085714D01*
X253833630Y-113323809D01*
X253881250Y-113466666D01*
X253976488Y-113561904D01*
X254071726Y-113609523D01*
X254262202Y-113657142D01*
X254405059Y-113657142D01*
X254595535Y-113609523D01*
X254690773Y-113561904D01*
X254786011Y-113466666D01*
X254833630Y-113323809D01*
X254833630Y-113085714D01*
X253833630Y-114514285D02*
X253833630Y-114323809D01*
X253881250Y-114228571D01*
X253928869Y-114180952D01*
X254071726Y-114085714D01*
X254262202Y-114038095D01*
X254643154Y-114038095D01*
X254738392Y-114085714D01*
X254786011Y-114133333D01*
X254833630Y-114228571D01*
X254833630Y-114419047D01*
X254786011Y-114514285D01*
X254738392Y-114561904D01*
X254643154Y-114609523D01*
X254405059Y-114609523D01*
X254309821Y-114561904D01*
X254262202Y-114514285D01*
X254214583Y-114419047D01*
X254214583Y-114228571D01*
X254262202Y-114133333D01*
X254309821Y-114085714D01*
X254405059Y-114038095D01*
X254166964Y-115466666D02*
X254833630Y-115466666D01*
X253786011Y-115228571D02*
X254500297Y-114990476D01*
X254500297Y-115609523D01*
X231021130Y-113085714D02*
X230021130Y-113085714D01*
X230021130Y-113323809D01*
X230068750Y-113466666D01*
X230163988Y-113561904D01*
X230259226Y-113609523D01*
X230449702Y-113657142D01*
X230592559Y-113657142D01*
X230783035Y-113609523D01*
X230878273Y-113561904D01*
X230973511Y-113466666D01*
X231021130Y-113323809D01*
X231021130Y-113085714D01*
X230021130Y-114514285D02*
X230021130Y-114323809D01*
X230068750Y-114228571D01*
X230116369Y-114180952D01*
X230259226Y-114085714D01*
X230449702Y-114038095D01*
X230830654Y-114038095D01*
X230925892Y-114085714D01*
X230973511Y-114133333D01*
X231021130Y-114228571D01*
X231021130Y-114419047D01*
X230973511Y-114514285D01*
X230925892Y-114561904D01*
X230830654Y-114609523D01*
X230592559Y-114609523D01*
X230497321Y-114561904D01*
X230449702Y-114514285D01*
X230402083Y-114419047D01*
X230402083Y-114228571D01*
X230449702Y-114133333D01*
X230497321Y-114085714D01*
X230592559Y-114038095D01*
X230021130Y-114942857D02*
X230021130Y-115561904D01*
X230402083Y-115228571D01*
X230402083Y-115371428D01*
X230449702Y-115466666D01*
X230497321Y-115514285D01*
X230592559Y-115561904D01*
X230830654Y-115561904D01*
X230925892Y-115514285D01*
X230973511Y-115466666D01*
X231021130Y-115371428D01*
X231021130Y-115085714D01*
X230973511Y-114990476D01*
X230925892Y-114942857D01*
X159583630Y-113085714D02*
X158583630Y-113085714D01*
X158583630Y-113323809D01*
X158631250Y-113466666D01*
X158726488Y-113561904D01*
X158821726Y-113609523D01*
X159012202Y-113657142D01*
X159155059Y-113657142D01*
X159345535Y-113609523D01*
X159440773Y-113561904D01*
X159536011Y-113466666D01*
X159583630Y-113323809D01*
X159583630Y-113085714D01*
X158583630Y-114514285D02*
X158583630Y-114323809D01*
X158631250Y-114228571D01*
X158678869Y-114180952D01*
X158821726Y-114085714D01*
X159012202Y-114038095D01*
X159393154Y-114038095D01*
X159488392Y-114085714D01*
X159536011Y-114133333D01*
X159583630Y-114228571D01*
X159583630Y-114419047D01*
X159536011Y-114514285D01*
X159488392Y-114561904D01*
X159393154Y-114609523D01*
X159155059Y-114609523D01*
X159059821Y-114561904D01*
X159012202Y-114514285D01*
X158964583Y-114419047D01*
X158964583Y-114228571D01*
X159012202Y-114133333D01*
X159059821Y-114085714D01*
X159155059Y-114038095D01*
X158678869Y-114990476D02*
X158631250Y-115038095D01*
X158583630Y-115133333D01*
X158583630Y-115371428D01*
X158631250Y-115466666D01*
X158678869Y-115514285D01*
X158774107Y-115561904D01*
X158869345Y-115561904D01*
X159012202Y-115514285D01*
X159583630Y-114942857D01*
X159583630Y-115561904D01*
X88146130Y-113085714D02*
X87146130Y-113085714D01*
X87146130Y-113323809D01*
X87193750Y-113466666D01*
X87288988Y-113561904D01*
X87384226Y-113609523D01*
X87574702Y-113657142D01*
X87717559Y-113657142D01*
X87908035Y-113609523D01*
X88003273Y-113561904D01*
X88098511Y-113466666D01*
X88146130Y-113323809D01*
X88146130Y-113085714D01*
X87146130Y-114514285D02*
X87146130Y-114323809D01*
X87193750Y-114228571D01*
X87241369Y-114180952D01*
X87384226Y-114085714D01*
X87574702Y-114038095D01*
X87955654Y-114038095D01*
X88050892Y-114085714D01*
X88098511Y-114133333D01*
X88146130Y-114228571D01*
X88146130Y-114419047D01*
X88098511Y-114514285D01*
X88050892Y-114561904D01*
X87955654Y-114609523D01*
X87717559Y-114609523D01*
X87622321Y-114561904D01*
X87574702Y-114514285D01*
X87527083Y-114419047D01*
X87527083Y-114228571D01*
X87574702Y-114133333D01*
X87622321Y-114085714D01*
X87717559Y-114038095D01*
X88146130Y-115561904D02*
X88146130Y-114990476D01*
X88146130Y-115276190D02*
X87146130Y-115276190D01*
X87288988Y-115180952D01*
X87384226Y-115085714D01*
X87431845Y-114990476D01*
X64333630Y-113085714D02*
X63333630Y-113085714D01*
X63333630Y-113323809D01*
X63381250Y-113466666D01*
X63476488Y-113561904D01*
X63571726Y-113609523D01*
X63762202Y-113657142D01*
X63905059Y-113657142D01*
X64095535Y-113609523D01*
X64190773Y-113561904D01*
X64286011Y-113466666D01*
X64333630Y-113323809D01*
X64333630Y-113085714D01*
X63333630Y-114514285D02*
X63333630Y-114323809D01*
X63381250Y-114228571D01*
X63428869Y-114180952D01*
X63571726Y-114085714D01*
X63762202Y-114038095D01*
X64143154Y-114038095D01*
X64238392Y-114085714D01*
X64286011Y-114133333D01*
X64333630Y-114228571D01*
X64333630Y-114419047D01*
X64286011Y-114514285D01*
X64238392Y-114561904D01*
X64143154Y-114609523D01*
X63905059Y-114609523D01*
X63809821Y-114561904D01*
X63762202Y-114514285D01*
X63714583Y-114419047D01*
X63714583Y-114228571D01*
X63762202Y-114133333D01*
X63809821Y-114085714D01*
X63905059Y-114038095D01*
X63333630Y-115228571D02*
X63333630Y-115323809D01*
X63381250Y-115419047D01*
X63428869Y-115466666D01*
X63524107Y-115514285D01*
X63714583Y-115561904D01*
X63952678Y-115561904D01*
X64143154Y-115514285D01*
X64238392Y-115466666D01*
X64286011Y-115419047D01*
X64333630Y-115323809D01*
X64333630Y-115228571D01*
X64286011Y-115133333D01*
X64238392Y-115085714D01*
X64143154Y-115038095D01*
X63952678Y-114990476D01*
X63714583Y-114990476D01*
X63524107Y-115038095D01*
X63428869Y-115085714D01*
X63381250Y-115133333D01*
X63333630Y-115228571D01*
X40521130Y-113085714D02*
X39521130Y-113085714D01*
X39521130Y-113323809D01*
X39568750Y-113466666D01*
X39663988Y-113561904D01*
X39759226Y-113609523D01*
X39949702Y-113657142D01*
X40092559Y-113657142D01*
X40283035Y-113609523D01*
X40378273Y-113561904D01*
X40473511Y-113466666D01*
X40521130Y-113323809D01*
X40521130Y-113085714D01*
X39521130Y-114561904D02*
X39521130Y-114085714D01*
X39997321Y-114038095D01*
X39949702Y-114085714D01*
X39902083Y-114180952D01*
X39902083Y-114419047D01*
X39949702Y-114514285D01*
X39997321Y-114561904D01*
X40092559Y-114609523D01*
X40330654Y-114609523D01*
X40425892Y-114561904D01*
X40473511Y-114514285D01*
X40521130Y-114419047D01*
X40521130Y-114180952D01*
X40473511Y-114085714D01*
X40425892Y-114038095D01*
X40521130Y-115085714D02*
X40521130Y-115276190D01*
X40473511Y-115371428D01*
X40425892Y-115419047D01*
X40283035Y-115514285D01*
X40092559Y-115561904D01*
X39711607Y-115561904D01*
X39616369Y-115514285D01*
X39568750Y-115466666D01*
X39521130Y-115371428D01*
X39521130Y-115180952D01*
X39568750Y-115085714D01*
X39616369Y-115038095D01*
X39711607Y-114990476D01*
X39949702Y-114990476D01*
X40044940Y-115038095D01*
X40092559Y-115085714D01*
X40140178Y-115180952D01*
X40140178Y-115371428D01*
X40092559Y-115466666D01*
X40044940Y-115514285D01*
X39949702Y-115561904D01*
X323889880Y-94035714D02*
X322889880Y-94035714D01*
X322889880Y-94273809D01*
X322937500Y-94416666D01*
X323032738Y-94511904D01*
X323127976Y-94559523D01*
X323318452Y-94607142D01*
X323461309Y-94607142D01*
X323651785Y-94559523D01*
X323747023Y-94511904D01*
X323842261Y-94416666D01*
X323889880Y-94273809D01*
X323889880Y-94035714D01*
X322889880Y-95511904D02*
X322889880Y-95035714D01*
X323366071Y-94988095D01*
X323318452Y-95035714D01*
X323270833Y-95130952D01*
X323270833Y-95369047D01*
X323318452Y-95464285D01*
X323366071Y-95511904D01*
X323461309Y-95559523D01*
X323699404Y-95559523D01*
X323794642Y-95511904D01*
X323842261Y-95464285D01*
X323889880Y-95369047D01*
X323889880Y-95130952D01*
X323842261Y-95035714D01*
X323794642Y-94988095D01*
X323318452Y-96130952D02*
X323270833Y-96035714D01*
X323223214Y-95988095D01*
X323127976Y-95940476D01*
X323080357Y-95940476D01*
X322985119Y-95988095D01*
X322937500Y-96035714D01*
X322889880Y-96130952D01*
X322889880Y-96321428D01*
X322937500Y-96416666D01*
X322985119Y-96464285D01*
X323080357Y-96511904D01*
X323127976Y-96511904D01*
X323223214Y-96464285D01*
X323270833Y-96416666D01*
X323318452Y-96321428D01*
X323318452Y-96130952D01*
X323366071Y-96035714D01*
X323413690Y-95988095D01*
X323508928Y-95940476D01*
X323699404Y-95940476D01*
X323794642Y-95988095D01*
X323842261Y-96035714D01*
X323889880Y-96130952D01*
X323889880Y-96321428D01*
X323842261Y-96416666D01*
X323794642Y-96464285D01*
X323699404Y-96511904D01*
X323508928Y-96511904D01*
X323413690Y-96464285D01*
X323366071Y-96416666D01*
X323318452Y-96321428D01*
X304839880Y-94035714D02*
X303839880Y-94035714D01*
X303839880Y-94273809D01*
X303887500Y-94416666D01*
X303982738Y-94511904D01*
X304077976Y-94559523D01*
X304268452Y-94607142D01*
X304411309Y-94607142D01*
X304601785Y-94559523D01*
X304697023Y-94511904D01*
X304792261Y-94416666D01*
X304839880Y-94273809D01*
X304839880Y-94035714D01*
X303839880Y-95511904D02*
X303839880Y-95035714D01*
X304316071Y-94988095D01*
X304268452Y-95035714D01*
X304220833Y-95130952D01*
X304220833Y-95369047D01*
X304268452Y-95464285D01*
X304316071Y-95511904D01*
X304411309Y-95559523D01*
X304649404Y-95559523D01*
X304744642Y-95511904D01*
X304792261Y-95464285D01*
X304839880Y-95369047D01*
X304839880Y-95130952D01*
X304792261Y-95035714D01*
X304744642Y-94988095D01*
X303839880Y-95892857D02*
X303839880Y-96559523D01*
X304839880Y-96130952D01*
X278646130Y-94035714D02*
X277646130Y-94035714D01*
X277646130Y-94273809D01*
X277693750Y-94416666D01*
X277788988Y-94511904D01*
X277884226Y-94559523D01*
X278074702Y-94607142D01*
X278217559Y-94607142D01*
X278408035Y-94559523D01*
X278503273Y-94511904D01*
X278598511Y-94416666D01*
X278646130Y-94273809D01*
X278646130Y-94035714D01*
X277646130Y-95511904D02*
X277646130Y-95035714D01*
X278122321Y-94988095D01*
X278074702Y-95035714D01*
X278027083Y-95130952D01*
X278027083Y-95369047D01*
X278074702Y-95464285D01*
X278122321Y-95511904D01*
X278217559Y-95559523D01*
X278455654Y-95559523D01*
X278550892Y-95511904D01*
X278598511Y-95464285D01*
X278646130Y-95369047D01*
X278646130Y-95130952D01*
X278598511Y-95035714D01*
X278550892Y-94988095D01*
X277646130Y-96416666D02*
X277646130Y-96226190D01*
X277693750Y-96130952D01*
X277741369Y-96083333D01*
X277884226Y-95988095D01*
X278074702Y-95940476D01*
X278455654Y-95940476D01*
X278550892Y-95988095D01*
X278598511Y-96035714D01*
X278646130Y-96130952D01*
X278646130Y-96321428D01*
X278598511Y-96416666D01*
X278550892Y-96464285D01*
X278455654Y-96511904D01*
X278217559Y-96511904D01*
X278122321Y-96464285D01*
X278074702Y-96416666D01*
X278027083Y-96321428D01*
X278027083Y-96130952D01*
X278074702Y-96035714D01*
X278122321Y-95988095D01*
X278217559Y-95940476D01*
X252452380Y-94035714D02*
X251452380Y-94035714D01*
X251452380Y-94273809D01*
X251500000Y-94416666D01*
X251595238Y-94511904D01*
X251690476Y-94559523D01*
X251880952Y-94607142D01*
X252023809Y-94607142D01*
X252214285Y-94559523D01*
X252309523Y-94511904D01*
X252404761Y-94416666D01*
X252452380Y-94273809D01*
X252452380Y-94035714D01*
X251452380Y-95511904D02*
X251452380Y-95035714D01*
X251928571Y-94988095D01*
X251880952Y-95035714D01*
X251833333Y-95130952D01*
X251833333Y-95369047D01*
X251880952Y-95464285D01*
X251928571Y-95511904D01*
X252023809Y-95559523D01*
X252261904Y-95559523D01*
X252357142Y-95511904D01*
X252404761Y-95464285D01*
X252452380Y-95369047D01*
X252452380Y-95130952D01*
X252404761Y-95035714D01*
X252357142Y-94988095D01*
X251452380Y-96464285D02*
X251452380Y-95988095D01*
X251928571Y-95940476D01*
X251880952Y-95988095D01*
X251833333Y-96083333D01*
X251833333Y-96321428D01*
X251880952Y-96416666D01*
X251928571Y-96464285D01*
X252023809Y-96511904D01*
X252261904Y-96511904D01*
X252357142Y-96464285D01*
X252404761Y-96416666D01*
X252452380Y-96321428D01*
X252452380Y-96083333D01*
X252404761Y-95988095D01*
X252357142Y-95940476D01*
X233402380Y-94035714D02*
X232402380Y-94035714D01*
X232402380Y-94273809D01*
X232450000Y-94416666D01*
X232545238Y-94511904D01*
X232640476Y-94559523D01*
X232830952Y-94607142D01*
X232973809Y-94607142D01*
X233164285Y-94559523D01*
X233259523Y-94511904D01*
X233354761Y-94416666D01*
X233402380Y-94273809D01*
X233402380Y-94035714D01*
X232402380Y-95511904D02*
X232402380Y-95035714D01*
X232878571Y-94988095D01*
X232830952Y-95035714D01*
X232783333Y-95130952D01*
X232783333Y-95369047D01*
X232830952Y-95464285D01*
X232878571Y-95511904D01*
X232973809Y-95559523D01*
X233211904Y-95559523D01*
X233307142Y-95511904D01*
X233354761Y-95464285D01*
X233402380Y-95369047D01*
X233402380Y-95130952D01*
X233354761Y-95035714D01*
X233307142Y-94988095D01*
X232735714Y-96416666D02*
X233402380Y-96416666D01*
X232354761Y-96178571D02*
X233069047Y-95940476D01*
X233069047Y-96559523D01*
X214352380Y-94035714D02*
X213352380Y-94035714D01*
X213352380Y-94273809D01*
X213400000Y-94416666D01*
X213495238Y-94511904D01*
X213590476Y-94559523D01*
X213780952Y-94607142D01*
X213923809Y-94607142D01*
X214114285Y-94559523D01*
X214209523Y-94511904D01*
X214304761Y-94416666D01*
X214352380Y-94273809D01*
X214352380Y-94035714D01*
X213352380Y-95511904D02*
X213352380Y-95035714D01*
X213828571Y-94988095D01*
X213780952Y-95035714D01*
X213733333Y-95130952D01*
X213733333Y-95369047D01*
X213780952Y-95464285D01*
X213828571Y-95511904D01*
X213923809Y-95559523D01*
X214161904Y-95559523D01*
X214257142Y-95511904D01*
X214304761Y-95464285D01*
X214352380Y-95369047D01*
X214352380Y-95130952D01*
X214304761Y-95035714D01*
X214257142Y-94988095D01*
X213352380Y-95892857D02*
X213352380Y-96511904D01*
X213733333Y-96178571D01*
X213733333Y-96321428D01*
X213780952Y-96416666D01*
X213828571Y-96464285D01*
X213923809Y-96511904D01*
X214161904Y-96511904D01*
X214257142Y-96464285D01*
X214304761Y-96416666D01*
X214352380Y-96321428D01*
X214352380Y-96035714D01*
X214304761Y-95940476D01*
X214257142Y-95892857D01*
X195302380Y-94035714D02*
X194302380Y-94035714D01*
X194302380Y-94273809D01*
X194350000Y-94416666D01*
X194445238Y-94511904D01*
X194540476Y-94559523D01*
X194730952Y-94607142D01*
X194873809Y-94607142D01*
X195064285Y-94559523D01*
X195159523Y-94511904D01*
X195254761Y-94416666D01*
X195302380Y-94273809D01*
X195302380Y-94035714D01*
X194302380Y-95511904D02*
X194302380Y-95035714D01*
X194778571Y-94988095D01*
X194730952Y-95035714D01*
X194683333Y-95130952D01*
X194683333Y-95369047D01*
X194730952Y-95464285D01*
X194778571Y-95511904D01*
X194873809Y-95559523D01*
X195111904Y-95559523D01*
X195207142Y-95511904D01*
X195254761Y-95464285D01*
X195302380Y-95369047D01*
X195302380Y-95130952D01*
X195254761Y-95035714D01*
X195207142Y-94988095D01*
X194397619Y-95940476D02*
X194350000Y-95988095D01*
X194302380Y-96083333D01*
X194302380Y-96321428D01*
X194350000Y-96416666D01*
X194397619Y-96464285D01*
X194492857Y-96511904D01*
X194588095Y-96511904D01*
X194730952Y-96464285D01*
X195302380Y-95892857D01*
X195302380Y-96511904D01*
X176252380Y-94035714D02*
X175252380Y-94035714D01*
X175252380Y-94273809D01*
X175300000Y-94416666D01*
X175395238Y-94511904D01*
X175490476Y-94559523D01*
X175680952Y-94607142D01*
X175823809Y-94607142D01*
X176014285Y-94559523D01*
X176109523Y-94511904D01*
X176204761Y-94416666D01*
X176252380Y-94273809D01*
X176252380Y-94035714D01*
X175252380Y-95511904D02*
X175252380Y-95035714D01*
X175728571Y-94988095D01*
X175680952Y-95035714D01*
X175633333Y-95130952D01*
X175633333Y-95369047D01*
X175680952Y-95464285D01*
X175728571Y-95511904D01*
X175823809Y-95559523D01*
X176061904Y-95559523D01*
X176157142Y-95511904D01*
X176204761Y-95464285D01*
X176252380Y-95369047D01*
X176252380Y-95130952D01*
X176204761Y-95035714D01*
X176157142Y-94988095D01*
X176252380Y-96511904D02*
X176252380Y-95940476D01*
X176252380Y-96226190D02*
X175252380Y-96226190D01*
X175395238Y-96130952D01*
X175490476Y-96035714D01*
X175538095Y-95940476D01*
X157202380Y-94035714D02*
X156202380Y-94035714D01*
X156202380Y-94273809D01*
X156250000Y-94416666D01*
X156345238Y-94511904D01*
X156440476Y-94559523D01*
X156630952Y-94607142D01*
X156773809Y-94607142D01*
X156964285Y-94559523D01*
X157059523Y-94511904D01*
X157154761Y-94416666D01*
X157202380Y-94273809D01*
X157202380Y-94035714D01*
X156202380Y-95511904D02*
X156202380Y-95035714D01*
X156678571Y-94988095D01*
X156630952Y-95035714D01*
X156583333Y-95130952D01*
X156583333Y-95369047D01*
X156630952Y-95464285D01*
X156678571Y-95511904D01*
X156773809Y-95559523D01*
X157011904Y-95559523D01*
X157107142Y-95511904D01*
X157154761Y-95464285D01*
X157202380Y-95369047D01*
X157202380Y-95130952D01*
X157154761Y-95035714D01*
X157107142Y-94988095D01*
X156202380Y-96178571D02*
X156202380Y-96273809D01*
X156250000Y-96369047D01*
X156297619Y-96416666D01*
X156392857Y-96464285D01*
X156583333Y-96511904D01*
X156821428Y-96511904D01*
X157011904Y-96464285D01*
X157107142Y-96416666D01*
X157154761Y-96369047D01*
X157202380Y-96273809D01*
X157202380Y-96178571D01*
X157154761Y-96083333D01*
X157107142Y-96035714D01*
X157011904Y-95988095D01*
X156821428Y-95940476D01*
X156583333Y-95940476D01*
X156392857Y-95988095D01*
X156297619Y-96035714D01*
X156250000Y-96083333D01*
X156202380Y-96178571D01*
X138152380Y-94035714D02*
X137152380Y-94035714D01*
X137152380Y-94273809D01*
X137200000Y-94416666D01*
X137295238Y-94511904D01*
X137390476Y-94559523D01*
X137580952Y-94607142D01*
X137723809Y-94607142D01*
X137914285Y-94559523D01*
X138009523Y-94511904D01*
X138104761Y-94416666D01*
X138152380Y-94273809D01*
X138152380Y-94035714D01*
X137485714Y-95464285D02*
X138152380Y-95464285D01*
X137104761Y-95226190D02*
X137819047Y-94988095D01*
X137819047Y-95607142D01*
X138152380Y-96035714D02*
X138152380Y-96226190D01*
X138104761Y-96321428D01*
X138057142Y-96369047D01*
X137914285Y-96464285D01*
X137723809Y-96511904D01*
X137342857Y-96511904D01*
X137247619Y-96464285D01*
X137200000Y-96416666D01*
X137152380Y-96321428D01*
X137152380Y-96130952D01*
X137200000Y-96035714D01*
X137247619Y-95988095D01*
X137342857Y-95940476D01*
X137580952Y-95940476D01*
X137676190Y-95988095D01*
X137723809Y-96035714D01*
X137771428Y-96130952D01*
X137771428Y-96321428D01*
X137723809Y-96416666D01*
X137676190Y-96464285D01*
X137580952Y-96511904D01*
X119102380Y-94035714D02*
X118102380Y-94035714D01*
X118102380Y-94273809D01*
X118150000Y-94416666D01*
X118245238Y-94511904D01*
X118340476Y-94559523D01*
X118530952Y-94607142D01*
X118673809Y-94607142D01*
X118864285Y-94559523D01*
X118959523Y-94511904D01*
X119054761Y-94416666D01*
X119102380Y-94273809D01*
X119102380Y-94035714D01*
X118435714Y-95464285D02*
X119102380Y-95464285D01*
X118054761Y-95226190D02*
X118769047Y-94988095D01*
X118769047Y-95607142D01*
X118530952Y-96130952D02*
X118483333Y-96035714D01*
X118435714Y-95988095D01*
X118340476Y-95940476D01*
X118292857Y-95940476D01*
X118197619Y-95988095D01*
X118150000Y-96035714D01*
X118102380Y-96130952D01*
X118102380Y-96321428D01*
X118150000Y-96416666D01*
X118197619Y-96464285D01*
X118292857Y-96511904D01*
X118340476Y-96511904D01*
X118435714Y-96464285D01*
X118483333Y-96416666D01*
X118530952Y-96321428D01*
X118530952Y-96130952D01*
X118578571Y-96035714D01*
X118626190Y-95988095D01*
X118721428Y-95940476D01*
X118911904Y-95940476D01*
X119007142Y-95988095D01*
X119054761Y-96035714D01*
X119102380Y-96130952D01*
X119102380Y-96321428D01*
X119054761Y-96416666D01*
X119007142Y-96464285D01*
X118911904Y-96511904D01*
X118721428Y-96511904D01*
X118626190Y-96464285D01*
X118578571Y-96416666D01*
X118530952Y-96321428D01*
X100052380Y-94035714D02*
X99052380Y-94035714D01*
X99052380Y-94273809D01*
X99100000Y-94416666D01*
X99195238Y-94511904D01*
X99290476Y-94559523D01*
X99480952Y-94607142D01*
X99623809Y-94607142D01*
X99814285Y-94559523D01*
X99909523Y-94511904D01*
X100004761Y-94416666D01*
X100052380Y-94273809D01*
X100052380Y-94035714D01*
X99385714Y-95464285D02*
X100052380Y-95464285D01*
X99004761Y-95226190D02*
X99719047Y-94988095D01*
X99719047Y-95607142D01*
X99052380Y-95892857D02*
X99052380Y-96559523D01*
X100052380Y-96130952D01*
X81002380Y-94035714D02*
X80002380Y-94035714D01*
X80002380Y-94273809D01*
X80050000Y-94416666D01*
X80145238Y-94511904D01*
X80240476Y-94559523D01*
X80430952Y-94607142D01*
X80573809Y-94607142D01*
X80764285Y-94559523D01*
X80859523Y-94511904D01*
X80954761Y-94416666D01*
X81002380Y-94273809D01*
X81002380Y-94035714D01*
X80335714Y-95464285D02*
X81002380Y-95464285D01*
X79954761Y-95226190D02*
X80669047Y-94988095D01*
X80669047Y-95607142D01*
X80002380Y-96416666D02*
X80002380Y-96226190D01*
X80050000Y-96130952D01*
X80097619Y-96083333D01*
X80240476Y-95988095D01*
X80430952Y-95940476D01*
X80811904Y-95940476D01*
X80907142Y-95988095D01*
X80954761Y-96035714D01*
X81002380Y-96130952D01*
X81002380Y-96321428D01*
X80954761Y-96416666D01*
X80907142Y-96464285D01*
X80811904Y-96511904D01*
X80573809Y-96511904D01*
X80478571Y-96464285D01*
X80430952Y-96416666D01*
X80383333Y-96321428D01*
X80383333Y-96130952D01*
X80430952Y-96035714D01*
X80478571Y-95988095D01*
X80573809Y-95940476D01*
X50046130Y-94035714D02*
X49046130Y-94035714D01*
X49046130Y-94273809D01*
X49093750Y-94416666D01*
X49188988Y-94511904D01*
X49284226Y-94559523D01*
X49474702Y-94607142D01*
X49617559Y-94607142D01*
X49808035Y-94559523D01*
X49903273Y-94511904D01*
X49998511Y-94416666D01*
X50046130Y-94273809D01*
X50046130Y-94035714D01*
X49379464Y-95464285D02*
X50046130Y-95464285D01*
X48998511Y-95226190D02*
X49712797Y-94988095D01*
X49712797Y-95607142D01*
X49046130Y-96464285D02*
X49046130Y-95988095D01*
X49522321Y-95940476D01*
X49474702Y-95988095D01*
X49427083Y-96083333D01*
X49427083Y-96321428D01*
X49474702Y-96416666D01*
X49522321Y-96464285D01*
X49617559Y-96511904D01*
X49855654Y-96511904D01*
X49950892Y-96464285D01*
X49998511Y-96416666D01*
X50046130Y-96321428D01*
X50046130Y-96083333D01*
X49998511Y-95988095D01*
X49950892Y-95940476D01*
X323889880Y-74985714D02*
X322889880Y-74985714D01*
X322889880Y-75223809D01*
X322937500Y-75366666D01*
X323032738Y-75461904D01*
X323127976Y-75509523D01*
X323318452Y-75557142D01*
X323461309Y-75557142D01*
X323651785Y-75509523D01*
X323747023Y-75461904D01*
X323842261Y-75366666D01*
X323889880Y-75223809D01*
X323889880Y-74985714D01*
X323223214Y-76414285D02*
X323889880Y-76414285D01*
X322842261Y-76176190D02*
X323556547Y-75938095D01*
X323556547Y-76557142D01*
X323223214Y-77366666D02*
X323889880Y-77366666D01*
X322842261Y-77128571D02*
X323556547Y-76890476D01*
X323556547Y-77509523D01*
X292933630Y-74985714D02*
X291933630Y-74985714D01*
X291933630Y-75223809D01*
X291981250Y-75366666D01*
X292076488Y-75461904D01*
X292171726Y-75509523D01*
X292362202Y-75557142D01*
X292505059Y-75557142D01*
X292695535Y-75509523D01*
X292790773Y-75461904D01*
X292886011Y-75366666D01*
X292933630Y-75223809D01*
X292933630Y-74985714D01*
X292266964Y-76414285D02*
X292933630Y-76414285D01*
X291886011Y-76176190D02*
X292600297Y-75938095D01*
X292600297Y-76557142D01*
X291933630Y-76842857D02*
X291933630Y-77461904D01*
X292314583Y-77128571D01*
X292314583Y-77271428D01*
X292362202Y-77366666D01*
X292409821Y-77414285D01*
X292505059Y-77461904D01*
X292743154Y-77461904D01*
X292838392Y-77414285D01*
X292886011Y-77366666D01*
X292933630Y-77271428D01*
X292933630Y-76985714D01*
X292886011Y-76890476D01*
X292838392Y-76842857D01*
X261977380Y-74985714D02*
X260977380Y-74985714D01*
X260977380Y-75223809D01*
X261025000Y-75366666D01*
X261120238Y-75461904D01*
X261215476Y-75509523D01*
X261405952Y-75557142D01*
X261548809Y-75557142D01*
X261739285Y-75509523D01*
X261834523Y-75461904D01*
X261929761Y-75366666D01*
X261977380Y-75223809D01*
X261977380Y-74985714D01*
X261310714Y-76414285D02*
X261977380Y-76414285D01*
X260929761Y-76176190D02*
X261644047Y-75938095D01*
X261644047Y-76557142D01*
X261072619Y-76890476D02*
X261025000Y-76938095D01*
X260977380Y-77033333D01*
X260977380Y-77271428D01*
X261025000Y-77366666D01*
X261072619Y-77414285D01*
X261167857Y-77461904D01*
X261263095Y-77461904D01*
X261405952Y-77414285D01*
X261977380Y-76842857D01*
X261977380Y-77461904D01*
X242927380Y-74985714D02*
X241927380Y-74985714D01*
X241927380Y-75223809D01*
X241975000Y-75366666D01*
X242070238Y-75461904D01*
X242165476Y-75509523D01*
X242355952Y-75557142D01*
X242498809Y-75557142D01*
X242689285Y-75509523D01*
X242784523Y-75461904D01*
X242879761Y-75366666D01*
X242927380Y-75223809D01*
X242927380Y-74985714D01*
X242260714Y-76414285D02*
X242927380Y-76414285D01*
X241879761Y-76176190D02*
X242594047Y-75938095D01*
X242594047Y-76557142D01*
X242927380Y-77461904D02*
X242927380Y-76890476D01*
X242927380Y-77176190D02*
X241927380Y-77176190D01*
X242070238Y-77080952D01*
X242165476Y-76985714D01*
X242213095Y-76890476D01*
X223877380Y-74985714D02*
X222877380Y-74985714D01*
X222877380Y-75223809D01*
X222925000Y-75366666D01*
X223020238Y-75461904D01*
X223115476Y-75509523D01*
X223305952Y-75557142D01*
X223448809Y-75557142D01*
X223639285Y-75509523D01*
X223734523Y-75461904D01*
X223829761Y-75366666D01*
X223877380Y-75223809D01*
X223877380Y-74985714D01*
X223210714Y-76414285D02*
X223877380Y-76414285D01*
X222829761Y-76176190D02*
X223544047Y-75938095D01*
X223544047Y-76557142D01*
X222877380Y-77128571D02*
X222877380Y-77223809D01*
X222925000Y-77319047D01*
X222972619Y-77366666D01*
X223067857Y-77414285D01*
X223258333Y-77461904D01*
X223496428Y-77461904D01*
X223686904Y-77414285D01*
X223782142Y-77366666D01*
X223829761Y-77319047D01*
X223877380Y-77223809D01*
X223877380Y-77128571D01*
X223829761Y-77033333D01*
X223782142Y-76985714D01*
X223686904Y-76938095D01*
X223496428Y-76890476D01*
X223258333Y-76890476D01*
X223067857Y-76938095D01*
X222972619Y-76985714D01*
X222925000Y-77033333D01*
X222877380Y-77128571D01*
X204827380Y-74985714D02*
X203827380Y-74985714D01*
X203827380Y-75223809D01*
X203875000Y-75366666D01*
X203970238Y-75461904D01*
X204065476Y-75509523D01*
X204255952Y-75557142D01*
X204398809Y-75557142D01*
X204589285Y-75509523D01*
X204684523Y-75461904D01*
X204779761Y-75366666D01*
X204827380Y-75223809D01*
X204827380Y-74985714D01*
X203827380Y-75890476D02*
X203827380Y-76509523D01*
X204208333Y-76176190D01*
X204208333Y-76319047D01*
X204255952Y-76414285D01*
X204303571Y-76461904D01*
X204398809Y-76509523D01*
X204636904Y-76509523D01*
X204732142Y-76461904D01*
X204779761Y-76414285D01*
X204827380Y-76319047D01*
X204827380Y-76033333D01*
X204779761Y-75938095D01*
X204732142Y-75890476D01*
X204827380Y-76985714D02*
X204827380Y-77176190D01*
X204779761Y-77271428D01*
X204732142Y-77319047D01*
X204589285Y-77414285D01*
X204398809Y-77461904D01*
X204017857Y-77461904D01*
X203922619Y-77414285D01*
X203875000Y-77366666D01*
X203827380Y-77271428D01*
X203827380Y-77080952D01*
X203875000Y-76985714D01*
X203922619Y-76938095D01*
X204017857Y-76890476D01*
X204255952Y-76890476D01*
X204351190Y-76938095D01*
X204398809Y-76985714D01*
X204446428Y-77080952D01*
X204446428Y-77271428D01*
X204398809Y-77366666D01*
X204351190Y-77414285D01*
X204255952Y-77461904D01*
X185777380Y-74985714D02*
X184777380Y-74985714D01*
X184777380Y-75223809D01*
X184825000Y-75366666D01*
X184920238Y-75461904D01*
X185015476Y-75509523D01*
X185205952Y-75557142D01*
X185348809Y-75557142D01*
X185539285Y-75509523D01*
X185634523Y-75461904D01*
X185729761Y-75366666D01*
X185777380Y-75223809D01*
X185777380Y-74985714D01*
X184777380Y-75890476D02*
X184777380Y-76509523D01*
X185158333Y-76176190D01*
X185158333Y-76319047D01*
X185205952Y-76414285D01*
X185253571Y-76461904D01*
X185348809Y-76509523D01*
X185586904Y-76509523D01*
X185682142Y-76461904D01*
X185729761Y-76414285D01*
X185777380Y-76319047D01*
X185777380Y-76033333D01*
X185729761Y-75938095D01*
X185682142Y-75890476D01*
X185205952Y-77080952D02*
X185158333Y-76985714D01*
X185110714Y-76938095D01*
X185015476Y-76890476D01*
X184967857Y-76890476D01*
X184872619Y-76938095D01*
X184825000Y-76985714D01*
X184777380Y-77080952D01*
X184777380Y-77271428D01*
X184825000Y-77366666D01*
X184872619Y-77414285D01*
X184967857Y-77461904D01*
X185015476Y-77461904D01*
X185110714Y-77414285D01*
X185158333Y-77366666D01*
X185205952Y-77271428D01*
X185205952Y-77080952D01*
X185253571Y-76985714D01*
X185301190Y-76938095D01*
X185396428Y-76890476D01*
X185586904Y-76890476D01*
X185682142Y-76938095D01*
X185729761Y-76985714D01*
X185777380Y-77080952D01*
X185777380Y-77271428D01*
X185729761Y-77366666D01*
X185682142Y-77414285D01*
X185586904Y-77461904D01*
X185396428Y-77461904D01*
X185301190Y-77414285D01*
X185253571Y-77366666D01*
X185205952Y-77271428D01*
X166727380Y-74985714D02*
X165727380Y-74985714D01*
X165727380Y-75223809D01*
X165775000Y-75366666D01*
X165870238Y-75461904D01*
X165965476Y-75509523D01*
X166155952Y-75557142D01*
X166298809Y-75557142D01*
X166489285Y-75509523D01*
X166584523Y-75461904D01*
X166679761Y-75366666D01*
X166727380Y-75223809D01*
X166727380Y-74985714D01*
X165727380Y-75890476D02*
X165727380Y-76509523D01*
X166108333Y-76176190D01*
X166108333Y-76319047D01*
X166155952Y-76414285D01*
X166203571Y-76461904D01*
X166298809Y-76509523D01*
X166536904Y-76509523D01*
X166632142Y-76461904D01*
X166679761Y-76414285D01*
X166727380Y-76319047D01*
X166727380Y-76033333D01*
X166679761Y-75938095D01*
X166632142Y-75890476D01*
X165727380Y-76842857D02*
X165727380Y-77509523D01*
X166727380Y-77080952D01*
X147677380Y-74985714D02*
X146677380Y-74985714D01*
X146677380Y-75223809D01*
X146725000Y-75366666D01*
X146820238Y-75461904D01*
X146915476Y-75509523D01*
X147105952Y-75557142D01*
X147248809Y-75557142D01*
X147439285Y-75509523D01*
X147534523Y-75461904D01*
X147629761Y-75366666D01*
X147677380Y-75223809D01*
X147677380Y-74985714D01*
X146677380Y-75890476D02*
X146677380Y-76509523D01*
X147058333Y-76176190D01*
X147058333Y-76319047D01*
X147105952Y-76414285D01*
X147153571Y-76461904D01*
X147248809Y-76509523D01*
X147486904Y-76509523D01*
X147582142Y-76461904D01*
X147629761Y-76414285D01*
X147677380Y-76319047D01*
X147677380Y-76033333D01*
X147629761Y-75938095D01*
X147582142Y-75890476D01*
X146677380Y-77366666D02*
X146677380Y-77176190D01*
X146725000Y-77080952D01*
X146772619Y-77033333D01*
X146915476Y-76938095D01*
X147105952Y-76890476D01*
X147486904Y-76890476D01*
X147582142Y-76938095D01*
X147629761Y-76985714D01*
X147677380Y-77080952D01*
X147677380Y-77271428D01*
X147629761Y-77366666D01*
X147582142Y-77414285D01*
X147486904Y-77461904D01*
X147248809Y-77461904D01*
X147153571Y-77414285D01*
X147105952Y-77366666D01*
X147058333Y-77271428D01*
X147058333Y-77080952D01*
X147105952Y-76985714D01*
X147153571Y-76938095D01*
X147248809Y-76890476D01*
X128627380Y-74985714D02*
X127627380Y-74985714D01*
X127627380Y-75223809D01*
X127675000Y-75366666D01*
X127770238Y-75461904D01*
X127865476Y-75509523D01*
X128055952Y-75557142D01*
X128198809Y-75557142D01*
X128389285Y-75509523D01*
X128484523Y-75461904D01*
X128579761Y-75366666D01*
X128627380Y-75223809D01*
X128627380Y-74985714D01*
X127627380Y-75890476D02*
X127627380Y-76509523D01*
X128008333Y-76176190D01*
X128008333Y-76319047D01*
X128055952Y-76414285D01*
X128103571Y-76461904D01*
X128198809Y-76509523D01*
X128436904Y-76509523D01*
X128532142Y-76461904D01*
X128579761Y-76414285D01*
X128627380Y-76319047D01*
X128627380Y-76033333D01*
X128579761Y-75938095D01*
X128532142Y-75890476D01*
X127627380Y-77414285D02*
X127627380Y-76938095D01*
X128103571Y-76890476D01*
X128055952Y-76938095D01*
X128008333Y-77033333D01*
X128008333Y-77271428D01*
X128055952Y-77366666D01*
X128103571Y-77414285D01*
X128198809Y-77461904D01*
X128436904Y-77461904D01*
X128532142Y-77414285D01*
X128579761Y-77366666D01*
X128627380Y-77271428D01*
X128627380Y-77033333D01*
X128579761Y-76938095D01*
X128532142Y-76890476D01*
X109577380Y-74985714D02*
X108577380Y-74985714D01*
X108577380Y-75223809D01*
X108625000Y-75366666D01*
X108720238Y-75461904D01*
X108815476Y-75509523D01*
X109005952Y-75557142D01*
X109148809Y-75557142D01*
X109339285Y-75509523D01*
X109434523Y-75461904D01*
X109529761Y-75366666D01*
X109577380Y-75223809D01*
X109577380Y-74985714D01*
X108577380Y-75890476D02*
X108577380Y-76509523D01*
X108958333Y-76176190D01*
X108958333Y-76319047D01*
X109005952Y-76414285D01*
X109053571Y-76461904D01*
X109148809Y-76509523D01*
X109386904Y-76509523D01*
X109482142Y-76461904D01*
X109529761Y-76414285D01*
X109577380Y-76319047D01*
X109577380Y-76033333D01*
X109529761Y-75938095D01*
X109482142Y-75890476D01*
X108910714Y-77366666D02*
X109577380Y-77366666D01*
X108529761Y-77128571D02*
X109244047Y-76890476D01*
X109244047Y-77509523D01*
X90527380Y-74985714D02*
X89527380Y-74985714D01*
X89527380Y-75223809D01*
X89575000Y-75366666D01*
X89670238Y-75461904D01*
X89765476Y-75509523D01*
X89955952Y-75557142D01*
X90098809Y-75557142D01*
X90289285Y-75509523D01*
X90384523Y-75461904D01*
X90479761Y-75366666D01*
X90527380Y-75223809D01*
X90527380Y-74985714D01*
X89527380Y-75890476D02*
X89527380Y-76509523D01*
X89908333Y-76176190D01*
X89908333Y-76319047D01*
X89955952Y-76414285D01*
X90003571Y-76461904D01*
X90098809Y-76509523D01*
X90336904Y-76509523D01*
X90432142Y-76461904D01*
X90479761Y-76414285D01*
X90527380Y-76319047D01*
X90527380Y-76033333D01*
X90479761Y-75938095D01*
X90432142Y-75890476D01*
X89527380Y-76842857D02*
X89527380Y-77461904D01*
X89908333Y-77128571D01*
X89908333Y-77271428D01*
X89955952Y-77366666D01*
X90003571Y-77414285D01*
X90098809Y-77461904D01*
X90336904Y-77461904D01*
X90432142Y-77414285D01*
X90479761Y-77366666D01*
X90527380Y-77271428D01*
X90527380Y-76985714D01*
X90479761Y-76890476D01*
X90432142Y-76842857D01*
X71477380Y-74985714D02*
X70477380Y-74985714D01*
X70477380Y-75223809D01*
X70525000Y-75366666D01*
X70620238Y-75461904D01*
X70715476Y-75509523D01*
X70905952Y-75557142D01*
X71048809Y-75557142D01*
X71239285Y-75509523D01*
X71334523Y-75461904D01*
X71429761Y-75366666D01*
X71477380Y-75223809D01*
X71477380Y-74985714D01*
X70477380Y-75890476D02*
X70477380Y-76509523D01*
X70858333Y-76176190D01*
X70858333Y-76319047D01*
X70905952Y-76414285D01*
X70953571Y-76461904D01*
X71048809Y-76509523D01*
X71286904Y-76509523D01*
X71382142Y-76461904D01*
X71429761Y-76414285D01*
X71477380Y-76319047D01*
X71477380Y-76033333D01*
X71429761Y-75938095D01*
X71382142Y-75890476D01*
X70572619Y-76890476D02*
X70525000Y-76938095D01*
X70477380Y-77033333D01*
X70477380Y-77271428D01*
X70525000Y-77366666D01*
X70572619Y-77414285D01*
X70667857Y-77461904D01*
X70763095Y-77461904D01*
X70905952Y-77414285D01*
X71477380Y-76842857D01*
X71477380Y-77461904D01*
X45283630Y-74985714D02*
X44283630Y-74985714D01*
X44283630Y-75223809D01*
X44331250Y-75366666D01*
X44426488Y-75461904D01*
X44521726Y-75509523D01*
X44712202Y-75557142D01*
X44855059Y-75557142D01*
X45045535Y-75509523D01*
X45140773Y-75461904D01*
X45236011Y-75366666D01*
X45283630Y-75223809D01*
X45283630Y-74985714D01*
X44283630Y-75890476D02*
X44283630Y-76509523D01*
X44664583Y-76176190D01*
X44664583Y-76319047D01*
X44712202Y-76414285D01*
X44759821Y-76461904D01*
X44855059Y-76509523D01*
X45093154Y-76509523D01*
X45188392Y-76461904D01*
X45236011Y-76414285D01*
X45283630Y-76319047D01*
X45283630Y-76033333D01*
X45236011Y-75938095D01*
X45188392Y-75890476D01*
X45283630Y-77461904D02*
X45283630Y-76890476D01*
X45283630Y-77176190D02*
X44283630Y-77176190D01*
X44426488Y-77080952D01*
X44521726Y-76985714D01*
X44569345Y-76890476D01*
X323889880Y-55935714D02*
X322889880Y-55935714D01*
X322889880Y-56173809D01*
X322937500Y-56316666D01*
X323032738Y-56411904D01*
X323127976Y-56459523D01*
X323318452Y-56507142D01*
X323461309Y-56507142D01*
X323651785Y-56459523D01*
X323747023Y-56411904D01*
X323842261Y-56316666D01*
X323889880Y-56173809D01*
X323889880Y-55935714D01*
X322889880Y-56840476D02*
X322889880Y-57459523D01*
X323270833Y-57126190D01*
X323270833Y-57269047D01*
X323318452Y-57364285D01*
X323366071Y-57411904D01*
X323461309Y-57459523D01*
X323699404Y-57459523D01*
X323794642Y-57411904D01*
X323842261Y-57364285D01*
X323889880Y-57269047D01*
X323889880Y-56983333D01*
X323842261Y-56888095D01*
X323794642Y-56840476D01*
X322889880Y-58078571D02*
X322889880Y-58173809D01*
X322937500Y-58269047D01*
X322985119Y-58316666D01*
X323080357Y-58364285D01*
X323270833Y-58411904D01*
X323508928Y-58411904D01*
X323699404Y-58364285D01*
X323794642Y-58316666D01*
X323842261Y-58269047D01*
X323889880Y-58173809D01*
X323889880Y-58078571D01*
X323842261Y-57983333D01*
X323794642Y-57935714D01*
X323699404Y-57888095D01*
X323508928Y-57840476D01*
X323270833Y-57840476D01*
X323080357Y-57888095D01*
X322985119Y-57935714D01*
X322937500Y-57983333D01*
X322889880Y-58078571D01*
X300077380Y-55935714D02*
X299077380Y-55935714D01*
X299077380Y-56173809D01*
X299125000Y-56316666D01*
X299220238Y-56411904D01*
X299315476Y-56459523D01*
X299505952Y-56507142D01*
X299648809Y-56507142D01*
X299839285Y-56459523D01*
X299934523Y-56411904D01*
X300029761Y-56316666D01*
X300077380Y-56173809D01*
X300077380Y-55935714D01*
X299172619Y-56888095D02*
X299125000Y-56935714D01*
X299077380Y-57030952D01*
X299077380Y-57269047D01*
X299125000Y-57364285D01*
X299172619Y-57411904D01*
X299267857Y-57459523D01*
X299363095Y-57459523D01*
X299505952Y-57411904D01*
X300077380Y-56840476D01*
X300077380Y-57459523D01*
X300077380Y-57935714D02*
X300077380Y-58126190D01*
X300029761Y-58221428D01*
X299982142Y-58269047D01*
X299839285Y-58364285D01*
X299648809Y-58411904D01*
X299267857Y-58411904D01*
X299172619Y-58364285D01*
X299125000Y-58316666D01*
X299077380Y-58221428D01*
X299077380Y-58030952D01*
X299125000Y-57935714D01*
X299172619Y-57888095D01*
X299267857Y-57840476D01*
X299505952Y-57840476D01*
X299601190Y-57888095D01*
X299648809Y-57935714D01*
X299696428Y-58030952D01*
X299696428Y-58221428D01*
X299648809Y-58316666D01*
X299601190Y-58364285D01*
X299505952Y-58411904D01*
X276264880Y-55935714D02*
X275264880Y-55935714D01*
X275264880Y-56173809D01*
X275312500Y-56316666D01*
X275407738Y-56411904D01*
X275502976Y-56459523D01*
X275693452Y-56507142D01*
X275836309Y-56507142D01*
X276026785Y-56459523D01*
X276122023Y-56411904D01*
X276217261Y-56316666D01*
X276264880Y-56173809D01*
X276264880Y-55935714D01*
X275360119Y-56888095D02*
X275312500Y-56935714D01*
X275264880Y-57030952D01*
X275264880Y-57269047D01*
X275312500Y-57364285D01*
X275360119Y-57411904D01*
X275455357Y-57459523D01*
X275550595Y-57459523D01*
X275693452Y-57411904D01*
X276264880Y-56840476D01*
X276264880Y-57459523D01*
X275693452Y-58030952D02*
X275645833Y-57935714D01*
X275598214Y-57888095D01*
X275502976Y-57840476D01*
X275455357Y-57840476D01*
X275360119Y-57888095D01*
X275312500Y-57935714D01*
X275264880Y-58030952D01*
X275264880Y-58221428D01*
X275312500Y-58316666D01*
X275360119Y-58364285D01*
X275455357Y-58411904D01*
X275502976Y-58411904D01*
X275598214Y-58364285D01*
X275645833Y-58316666D01*
X275693452Y-58221428D01*
X275693452Y-58030952D01*
X275741071Y-57935714D01*
X275788690Y-57888095D01*
X275883928Y-57840476D01*
X276074404Y-57840476D01*
X276169642Y-57888095D01*
X276217261Y-57935714D01*
X276264880Y-58030952D01*
X276264880Y-58221428D01*
X276217261Y-58316666D01*
X276169642Y-58364285D01*
X276074404Y-58411904D01*
X275883928Y-58411904D01*
X275788690Y-58364285D01*
X275741071Y-58316666D01*
X275693452Y-58221428D01*
X257214880Y-55935714D02*
X256214880Y-55935714D01*
X256214880Y-56173809D01*
X256262500Y-56316666D01*
X256357738Y-56411904D01*
X256452976Y-56459523D01*
X256643452Y-56507142D01*
X256786309Y-56507142D01*
X256976785Y-56459523D01*
X257072023Y-56411904D01*
X257167261Y-56316666D01*
X257214880Y-56173809D01*
X257214880Y-55935714D01*
X256310119Y-56888095D02*
X256262500Y-56935714D01*
X256214880Y-57030952D01*
X256214880Y-57269047D01*
X256262500Y-57364285D01*
X256310119Y-57411904D01*
X256405357Y-57459523D01*
X256500595Y-57459523D01*
X256643452Y-57411904D01*
X257214880Y-56840476D01*
X257214880Y-57459523D01*
X256214880Y-57792857D02*
X256214880Y-58459523D01*
X257214880Y-58030952D01*
X238164880Y-55935714D02*
X237164880Y-55935714D01*
X237164880Y-56173809D01*
X237212500Y-56316666D01*
X237307738Y-56411904D01*
X237402976Y-56459523D01*
X237593452Y-56507142D01*
X237736309Y-56507142D01*
X237926785Y-56459523D01*
X238022023Y-56411904D01*
X238117261Y-56316666D01*
X238164880Y-56173809D01*
X238164880Y-55935714D01*
X237260119Y-56888095D02*
X237212500Y-56935714D01*
X237164880Y-57030952D01*
X237164880Y-57269047D01*
X237212500Y-57364285D01*
X237260119Y-57411904D01*
X237355357Y-57459523D01*
X237450595Y-57459523D01*
X237593452Y-57411904D01*
X238164880Y-56840476D01*
X238164880Y-57459523D01*
X237164880Y-58316666D02*
X237164880Y-58126190D01*
X237212500Y-58030952D01*
X237260119Y-57983333D01*
X237402976Y-57888095D01*
X237593452Y-57840476D01*
X237974404Y-57840476D01*
X238069642Y-57888095D01*
X238117261Y-57935714D01*
X238164880Y-58030952D01*
X238164880Y-58221428D01*
X238117261Y-58316666D01*
X238069642Y-58364285D01*
X237974404Y-58411904D01*
X237736309Y-58411904D01*
X237641071Y-58364285D01*
X237593452Y-58316666D01*
X237545833Y-58221428D01*
X237545833Y-58030952D01*
X237593452Y-57935714D01*
X237641071Y-57888095D01*
X237736309Y-57840476D01*
X219114880Y-55935714D02*
X218114880Y-55935714D01*
X218114880Y-56173809D01*
X218162500Y-56316666D01*
X218257738Y-56411904D01*
X218352976Y-56459523D01*
X218543452Y-56507142D01*
X218686309Y-56507142D01*
X218876785Y-56459523D01*
X218972023Y-56411904D01*
X219067261Y-56316666D01*
X219114880Y-56173809D01*
X219114880Y-55935714D01*
X218210119Y-56888095D02*
X218162500Y-56935714D01*
X218114880Y-57030952D01*
X218114880Y-57269047D01*
X218162500Y-57364285D01*
X218210119Y-57411904D01*
X218305357Y-57459523D01*
X218400595Y-57459523D01*
X218543452Y-57411904D01*
X219114880Y-56840476D01*
X219114880Y-57459523D01*
X218114880Y-58364285D02*
X218114880Y-57888095D01*
X218591071Y-57840476D01*
X218543452Y-57888095D01*
X218495833Y-57983333D01*
X218495833Y-58221428D01*
X218543452Y-58316666D01*
X218591071Y-58364285D01*
X218686309Y-58411904D01*
X218924404Y-58411904D01*
X219019642Y-58364285D01*
X219067261Y-58316666D01*
X219114880Y-58221428D01*
X219114880Y-57983333D01*
X219067261Y-57888095D01*
X219019642Y-57840476D01*
X200064880Y-55935714D02*
X199064880Y-55935714D01*
X199064880Y-56173809D01*
X199112500Y-56316666D01*
X199207738Y-56411904D01*
X199302976Y-56459523D01*
X199493452Y-56507142D01*
X199636309Y-56507142D01*
X199826785Y-56459523D01*
X199922023Y-56411904D01*
X200017261Y-56316666D01*
X200064880Y-56173809D01*
X200064880Y-55935714D01*
X199160119Y-56888095D02*
X199112500Y-56935714D01*
X199064880Y-57030952D01*
X199064880Y-57269047D01*
X199112500Y-57364285D01*
X199160119Y-57411904D01*
X199255357Y-57459523D01*
X199350595Y-57459523D01*
X199493452Y-57411904D01*
X200064880Y-56840476D01*
X200064880Y-57459523D01*
X199398214Y-58316666D02*
X200064880Y-58316666D01*
X199017261Y-58078571D02*
X199731547Y-57840476D01*
X199731547Y-58459523D01*
X181014880Y-55935714D02*
X180014880Y-55935714D01*
X180014880Y-56173809D01*
X180062500Y-56316666D01*
X180157738Y-56411904D01*
X180252976Y-56459523D01*
X180443452Y-56507142D01*
X180586309Y-56507142D01*
X180776785Y-56459523D01*
X180872023Y-56411904D01*
X180967261Y-56316666D01*
X181014880Y-56173809D01*
X181014880Y-55935714D01*
X180110119Y-56888095D02*
X180062500Y-56935714D01*
X180014880Y-57030952D01*
X180014880Y-57269047D01*
X180062500Y-57364285D01*
X180110119Y-57411904D01*
X180205357Y-57459523D01*
X180300595Y-57459523D01*
X180443452Y-57411904D01*
X181014880Y-56840476D01*
X181014880Y-57459523D01*
X180014880Y-57792857D02*
X180014880Y-58411904D01*
X180395833Y-58078571D01*
X180395833Y-58221428D01*
X180443452Y-58316666D01*
X180491071Y-58364285D01*
X180586309Y-58411904D01*
X180824404Y-58411904D01*
X180919642Y-58364285D01*
X180967261Y-58316666D01*
X181014880Y-58221428D01*
X181014880Y-57935714D01*
X180967261Y-57840476D01*
X180919642Y-57792857D01*
X161964880Y-55935714D02*
X160964880Y-55935714D01*
X160964880Y-56173809D01*
X161012500Y-56316666D01*
X161107738Y-56411904D01*
X161202976Y-56459523D01*
X161393452Y-56507142D01*
X161536309Y-56507142D01*
X161726785Y-56459523D01*
X161822023Y-56411904D01*
X161917261Y-56316666D01*
X161964880Y-56173809D01*
X161964880Y-55935714D01*
X161060119Y-56888095D02*
X161012500Y-56935714D01*
X160964880Y-57030952D01*
X160964880Y-57269047D01*
X161012500Y-57364285D01*
X161060119Y-57411904D01*
X161155357Y-57459523D01*
X161250595Y-57459523D01*
X161393452Y-57411904D01*
X161964880Y-56840476D01*
X161964880Y-57459523D01*
X161060119Y-57840476D02*
X161012500Y-57888095D01*
X160964880Y-57983333D01*
X160964880Y-58221428D01*
X161012500Y-58316666D01*
X161060119Y-58364285D01*
X161155357Y-58411904D01*
X161250595Y-58411904D01*
X161393452Y-58364285D01*
X161964880Y-57792857D01*
X161964880Y-58411904D01*
X142914880Y-55935714D02*
X141914880Y-55935714D01*
X141914880Y-56173809D01*
X141962500Y-56316666D01*
X142057738Y-56411904D01*
X142152976Y-56459523D01*
X142343452Y-56507142D01*
X142486309Y-56507142D01*
X142676785Y-56459523D01*
X142772023Y-56411904D01*
X142867261Y-56316666D01*
X142914880Y-56173809D01*
X142914880Y-55935714D01*
X142010119Y-56888095D02*
X141962500Y-56935714D01*
X141914880Y-57030952D01*
X141914880Y-57269047D01*
X141962500Y-57364285D01*
X142010119Y-57411904D01*
X142105357Y-57459523D01*
X142200595Y-57459523D01*
X142343452Y-57411904D01*
X142914880Y-56840476D01*
X142914880Y-57459523D01*
X142914880Y-58411904D02*
X142914880Y-57840476D01*
X142914880Y-58126190D02*
X141914880Y-58126190D01*
X142057738Y-58030952D01*
X142152976Y-57935714D01*
X142200595Y-57840476D01*
X123864880Y-55935714D02*
X122864880Y-55935714D01*
X122864880Y-56173809D01*
X122912500Y-56316666D01*
X123007738Y-56411904D01*
X123102976Y-56459523D01*
X123293452Y-56507142D01*
X123436309Y-56507142D01*
X123626785Y-56459523D01*
X123722023Y-56411904D01*
X123817261Y-56316666D01*
X123864880Y-56173809D01*
X123864880Y-55935714D01*
X122960119Y-56888095D02*
X122912500Y-56935714D01*
X122864880Y-57030952D01*
X122864880Y-57269047D01*
X122912500Y-57364285D01*
X122960119Y-57411904D01*
X123055357Y-57459523D01*
X123150595Y-57459523D01*
X123293452Y-57411904D01*
X123864880Y-56840476D01*
X123864880Y-57459523D01*
X122864880Y-58078571D02*
X122864880Y-58173809D01*
X122912500Y-58269047D01*
X122960119Y-58316666D01*
X123055357Y-58364285D01*
X123245833Y-58411904D01*
X123483928Y-58411904D01*
X123674404Y-58364285D01*
X123769642Y-58316666D01*
X123817261Y-58269047D01*
X123864880Y-58173809D01*
X123864880Y-58078571D01*
X123817261Y-57983333D01*
X123769642Y-57935714D01*
X123674404Y-57888095D01*
X123483928Y-57840476D01*
X123245833Y-57840476D01*
X123055357Y-57888095D01*
X122960119Y-57935714D01*
X122912500Y-57983333D01*
X122864880Y-58078571D01*
X104814880Y-55935714D02*
X103814880Y-55935714D01*
X103814880Y-56173809D01*
X103862500Y-56316666D01*
X103957738Y-56411904D01*
X104052976Y-56459523D01*
X104243452Y-56507142D01*
X104386309Y-56507142D01*
X104576785Y-56459523D01*
X104672023Y-56411904D01*
X104767261Y-56316666D01*
X104814880Y-56173809D01*
X104814880Y-55935714D01*
X104814880Y-57459523D02*
X104814880Y-56888095D01*
X104814880Y-57173809D02*
X103814880Y-57173809D01*
X103957738Y-57078571D01*
X104052976Y-56983333D01*
X104100595Y-56888095D01*
X104814880Y-57935714D02*
X104814880Y-58126190D01*
X104767261Y-58221428D01*
X104719642Y-58269047D01*
X104576785Y-58364285D01*
X104386309Y-58411904D01*
X104005357Y-58411904D01*
X103910119Y-58364285D01*
X103862500Y-58316666D01*
X103814880Y-58221428D01*
X103814880Y-58030952D01*
X103862500Y-57935714D01*
X103910119Y-57888095D01*
X104005357Y-57840476D01*
X104243452Y-57840476D01*
X104338690Y-57888095D01*
X104386309Y-57935714D01*
X104433928Y-58030952D01*
X104433928Y-58221428D01*
X104386309Y-58316666D01*
X104338690Y-58364285D01*
X104243452Y-58411904D01*
X85764880Y-55935714D02*
X84764880Y-55935714D01*
X84764880Y-56173809D01*
X84812500Y-56316666D01*
X84907738Y-56411904D01*
X85002976Y-56459523D01*
X85193452Y-56507142D01*
X85336309Y-56507142D01*
X85526785Y-56459523D01*
X85622023Y-56411904D01*
X85717261Y-56316666D01*
X85764880Y-56173809D01*
X85764880Y-55935714D01*
X85764880Y-57459523D02*
X85764880Y-56888095D01*
X85764880Y-57173809D02*
X84764880Y-57173809D01*
X84907738Y-57078571D01*
X85002976Y-56983333D01*
X85050595Y-56888095D01*
X85193452Y-58030952D02*
X85145833Y-57935714D01*
X85098214Y-57888095D01*
X85002976Y-57840476D01*
X84955357Y-57840476D01*
X84860119Y-57888095D01*
X84812500Y-57935714D01*
X84764880Y-58030952D01*
X84764880Y-58221428D01*
X84812500Y-58316666D01*
X84860119Y-58364285D01*
X84955357Y-58411904D01*
X85002976Y-58411904D01*
X85098214Y-58364285D01*
X85145833Y-58316666D01*
X85193452Y-58221428D01*
X85193452Y-58030952D01*
X85241071Y-57935714D01*
X85288690Y-57888095D01*
X85383928Y-57840476D01*
X85574404Y-57840476D01*
X85669642Y-57888095D01*
X85717261Y-57935714D01*
X85764880Y-58030952D01*
X85764880Y-58221428D01*
X85717261Y-58316666D01*
X85669642Y-58364285D01*
X85574404Y-58411904D01*
X85383928Y-58411904D01*
X85288690Y-58364285D01*
X85241071Y-58316666D01*
X85193452Y-58221428D01*
X66714880Y-55935714D02*
X65714880Y-55935714D01*
X65714880Y-56173809D01*
X65762500Y-56316666D01*
X65857738Y-56411904D01*
X65952976Y-56459523D01*
X66143452Y-56507142D01*
X66286309Y-56507142D01*
X66476785Y-56459523D01*
X66572023Y-56411904D01*
X66667261Y-56316666D01*
X66714880Y-56173809D01*
X66714880Y-55935714D01*
X66714880Y-57459523D02*
X66714880Y-56888095D01*
X66714880Y-57173809D02*
X65714880Y-57173809D01*
X65857738Y-57078571D01*
X65952976Y-56983333D01*
X66000595Y-56888095D01*
X65714880Y-57792857D02*
X65714880Y-58459523D01*
X66714880Y-58030952D01*
X42902380Y-55935714D02*
X41902380Y-55935714D01*
X41902380Y-56173809D01*
X41950000Y-56316666D01*
X42045238Y-56411904D01*
X42140476Y-56459523D01*
X42330952Y-56507142D01*
X42473809Y-56507142D01*
X42664285Y-56459523D01*
X42759523Y-56411904D01*
X42854761Y-56316666D01*
X42902380Y-56173809D01*
X42902380Y-55935714D01*
X42902380Y-57459523D02*
X42902380Y-56888095D01*
X42902380Y-57173809D02*
X41902380Y-57173809D01*
X42045238Y-57078571D01*
X42140476Y-56983333D01*
X42188095Y-56888095D01*
X41902380Y-58316666D02*
X41902380Y-58126190D01*
X41950000Y-58030952D01*
X41997619Y-57983333D01*
X42140476Y-57888095D01*
X42330952Y-57840476D01*
X42711904Y-57840476D01*
X42807142Y-57888095D01*
X42854761Y-57935714D01*
X42902380Y-58030952D01*
X42902380Y-58221428D01*
X42854761Y-58316666D01*
X42807142Y-58364285D01*
X42711904Y-58411904D01*
X42473809Y-58411904D01*
X42378571Y-58364285D01*
X42330952Y-58316666D01*
X42283333Y-58221428D01*
X42283333Y-58030952D01*
X42330952Y-57935714D01*
X42378571Y-57888095D01*
X42473809Y-57840476D01*
X323889880Y-36885714D02*
X322889880Y-36885714D01*
X322889880Y-37123809D01*
X322937500Y-37266666D01*
X323032738Y-37361904D01*
X323127976Y-37409523D01*
X323318452Y-37457142D01*
X323461309Y-37457142D01*
X323651785Y-37409523D01*
X323747023Y-37361904D01*
X323842261Y-37266666D01*
X323889880Y-37123809D01*
X323889880Y-36885714D01*
X323889880Y-38409523D02*
X323889880Y-37838095D01*
X323889880Y-38123809D02*
X322889880Y-38123809D01*
X323032738Y-38028571D01*
X323127976Y-37933333D01*
X323175595Y-37838095D01*
X322889880Y-39314285D02*
X322889880Y-38838095D01*
X323366071Y-38790476D01*
X323318452Y-38838095D01*
X323270833Y-38933333D01*
X323270833Y-39171428D01*
X323318452Y-39266666D01*
X323366071Y-39314285D01*
X323461309Y-39361904D01*
X323699404Y-39361904D01*
X323794642Y-39314285D01*
X323842261Y-39266666D01*
X323889880Y-39171428D01*
X323889880Y-38933333D01*
X323842261Y-38838095D01*
X323794642Y-38790476D01*
X295314880Y-36885714D02*
X294314880Y-36885714D01*
X294314880Y-37123809D01*
X294362500Y-37266666D01*
X294457738Y-37361904D01*
X294552976Y-37409523D01*
X294743452Y-37457142D01*
X294886309Y-37457142D01*
X295076785Y-37409523D01*
X295172023Y-37361904D01*
X295267261Y-37266666D01*
X295314880Y-37123809D01*
X295314880Y-36885714D01*
X295314880Y-38409523D02*
X295314880Y-37838095D01*
X295314880Y-38123809D02*
X294314880Y-38123809D01*
X294457738Y-38028571D01*
X294552976Y-37933333D01*
X294600595Y-37838095D01*
X294648214Y-39266666D02*
X295314880Y-39266666D01*
X294267261Y-39028571D02*
X294981547Y-38790476D01*
X294981547Y-39409523D01*
X266739880Y-36885714D02*
X265739880Y-36885714D01*
X265739880Y-37123809D01*
X265787500Y-37266666D01*
X265882738Y-37361904D01*
X265977976Y-37409523D01*
X266168452Y-37457142D01*
X266311309Y-37457142D01*
X266501785Y-37409523D01*
X266597023Y-37361904D01*
X266692261Y-37266666D01*
X266739880Y-37123809D01*
X266739880Y-36885714D01*
X266739880Y-38409523D02*
X266739880Y-37838095D01*
X266739880Y-38123809D02*
X265739880Y-38123809D01*
X265882738Y-38028571D01*
X265977976Y-37933333D01*
X266025595Y-37838095D01*
X265739880Y-38742857D02*
X265739880Y-39361904D01*
X266120833Y-39028571D01*
X266120833Y-39171428D01*
X266168452Y-39266666D01*
X266216071Y-39314285D01*
X266311309Y-39361904D01*
X266549404Y-39361904D01*
X266644642Y-39314285D01*
X266692261Y-39266666D01*
X266739880Y-39171428D01*
X266739880Y-38885714D01*
X266692261Y-38790476D01*
X266644642Y-38742857D01*
X247689880Y-36885714D02*
X246689880Y-36885714D01*
X246689880Y-37123809D01*
X246737500Y-37266666D01*
X246832738Y-37361904D01*
X246927976Y-37409523D01*
X247118452Y-37457142D01*
X247261309Y-37457142D01*
X247451785Y-37409523D01*
X247547023Y-37361904D01*
X247642261Y-37266666D01*
X247689880Y-37123809D01*
X247689880Y-36885714D01*
X247689880Y-38409523D02*
X247689880Y-37838095D01*
X247689880Y-38123809D02*
X246689880Y-38123809D01*
X246832738Y-38028571D01*
X246927976Y-37933333D01*
X246975595Y-37838095D01*
X246785119Y-38790476D02*
X246737500Y-38838095D01*
X246689880Y-38933333D01*
X246689880Y-39171428D01*
X246737500Y-39266666D01*
X246785119Y-39314285D01*
X246880357Y-39361904D01*
X246975595Y-39361904D01*
X247118452Y-39314285D01*
X247689880Y-38742857D01*
X247689880Y-39361904D01*
X228639880Y-36885714D02*
X227639880Y-36885714D01*
X227639880Y-37123809D01*
X227687500Y-37266666D01*
X227782738Y-37361904D01*
X227877976Y-37409523D01*
X228068452Y-37457142D01*
X228211309Y-37457142D01*
X228401785Y-37409523D01*
X228497023Y-37361904D01*
X228592261Y-37266666D01*
X228639880Y-37123809D01*
X228639880Y-36885714D01*
X228639880Y-38409523D02*
X228639880Y-37838095D01*
X228639880Y-38123809D02*
X227639880Y-38123809D01*
X227782738Y-38028571D01*
X227877976Y-37933333D01*
X227925595Y-37838095D01*
X228639880Y-39361904D02*
X228639880Y-38790476D01*
X228639880Y-39076190D02*
X227639880Y-39076190D01*
X227782738Y-38980952D01*
X227877976Y-38885714D01*
X227925595Y-38790476D01*
X209589880Y-36885714D02*
X208589880Y-36885714D01*
X208589880Y-37123809D01*
X208637500Y-37266666D01*
X208732738Y-37361904D01*
X208827976Y-37409523D01*
X209018452Y-37457142D01*
X209161309Y-37457142D01*
X209351785Y-37409523D01*
X209447023Y-37361904D01*
X209542261Y-37266666D01*
X209589880Y-37123809D01*
X209589880Y-36885714D01*
X209589880Y-38409523D02*
X209589880Y-37838095D01*
X209589880Y-38123809D02*
X208589880Y-38123809D01*
X208732738Y-38028571D01*
X208827976Y-37933333D01*
X208875595Y-37838095D01*
X208589880Y-39028571D02*
X208589880Y-39123809D01*
X208637500Y-39219047D01*
X208685119Y-39266666D01*
X208780357Y-39314285D01*
X208970833Y-39361904D01*
X209208928Y-39361904D01*
X209399404Y-39314285D01*
X209494642Y-39266666D01*
X209542261Y-39219047D01*
X209589880Y-39123809D01*
X209589880Y-39028571D01*
X209542261Y-38933333D01*
X209494642Y-38885714D01*
X209399404Y-38838095D01*
X209208928Y-38790476D01*
X208970833Y-38790476D01*
X208780357Y-38838095D01*
X208685119Y-38885714D01*
X208637500Y-38933333D01*
X208589880Y-39028571D01*
X190539880Y-37361904D02*
X189539880Y-37361904D01*
X189539880Y-37600000D01*
X189587500Y-37742857D01*
X189682738Y-37838095D01*
X189777976Y-37885714D01*
X189968452Y-37933333D01*
X190111309Y-37933333D01*
X190301785Y-37885714D01*
X190397023Y-37838095D01*
X190492261Y-37742857D01*
X190539880Y-37600000D01*
X190539880Y-37361904D01*
X190539880Y-38409523D02*
X190539880Y-38600000D01*
X190492261Y-38695238D01*
X190444642Y-38742857D01*
X190301785Y-38838095D01*
X190111309Y-38885714D01*
X189730357Y-38885714D01*
X189635119Y-38838095D01*
X189587500Y-38790476D01*
X189539880Y-38695238D01*
X189539880Y-38504761D01*
X189587500Y-38409523D01*
X189635119Y-38361904D01*
X189730357Y-38314285D01*
X189968452Y-38314285D01*
X190063690Y-38361904D01*
X190111309Y-38409523D01*
X190158928Y-38504761D01*
X190158928Y-38695238D01*
X190111309Y-38790476D01*
X190063690Y-38838095D01*
X189968452Y-38885714D01*
X171489880Y-37361904D02*
X170489880Y-37361904D01*
X170489880Y-37600000D01*
X170537500Y-37742857D01*
X170632738Y-37838095D01*
X170727976Y-37885714D01*
X170918452Y-37933333D01*
X171061309Y-37933333D01*
X171251785Y-37885714D01*
X171347023Y-37838095D01*
X171442261Y-37742857D01*
X171489880Y-37600000D01*
X171489880Y-37361904D01*
X170918452Y-38504761D02*
X170870833Y-38409523D01*
X170823214Y-38361904D01*
X170727976Y-38314285D01*
X170680357Y-38314285D01*
X170585119Y-38361904D01*
X170537500Y-38409523D01*
X170489880Y-38504761D01*
X170489880Y-38695238D01*
X170537500Y-38790476D01*
X170585119Y-38838095D01*
X170680357Y-38885714D01*
X170727976Y-38885714D01*
X170823214Y-38838095D01*
X170870833Y-38790476D01*
X170918452Y-38695238D01*
X170918452Y-38504761D01*
X170966071Y-38409523D01*
X171013690Y-38361904D01*
X171108928Y-38314285D01*
X171299404Y-38314285D01*
X171394642Y-38361904D01*
X171442261Y-38409523D01*
X171489880Y-38504761D01*
X171489880Y-38695238D01*
X171442261Y-38790476D01*
X171394642Y-38838095D01*
X171299404Y-38885714D01*
X171108928Y-38885714D01*
X171013690Y-38838095D01*
X170966071Y-38790476D01*
X170918452Y-38695238D01*
X152439880Y-37361904D02*
X151439880Y-37361904D01*
X151439880Y-37600000D01*
X151487500Y-37742857D01*
X151582738Y-37838095D01*
X151677976Y-37885714D01*
X151868452Y-37933333D01*
X152011309Y-37933333D01*
X152201785Y-37885714D01*
X152297023Y-37838095D01*
X152392261Y-37742857D01*
X152439880Y-37600000D01*
X152439880Y-37361904D01*
X151439880Y-38266666D02*
X151439880Y-38933333D01*
X152439880Y-38504761D01*
X133389880Y-37361904D02*
X132389880Y-37361904D01*
X132389880Y-37600000D01*
X132437500Y-37742857D01*
X132532738Y-37838095D01*
X132627976Y-37885714D01*
X132818452Y-37933333D01*
X132961309Y-37933333D01*
X133151785Y-37885714D01*
X133247023Y-37838095D01*
X133342261Y-37742857D01*
X133389880Y-37600000D01*
X133389880Y-37361904D01*
X132389880Y-38790476D02*
X132389880Y-38600000D01*
X132437500Y-38504761D01*
X132485119Y-38457142D01*
X132627976Y-38361904D01*
X132818452Y-38314285D01*
X133199404Y-38314285D01*
X133294642Y-38361904D01*
X133342261Y-38409523D01*
X133389880Y-38504761D01*
X133389880Y-38695238D01*
X133342261Y-38790476D01*
X133294642Y-38838095D01*
X133199404Y-38885714D01*
X132961309Y-38885714D01*
X132866071Y-38838095D01*
X132818452Y-38790476D01*
X132770833Y-38695238D01*
X132770833Y-38504761D01*
X132818452Y-38409523D01*
X132866071Y-38361904D01*
X132961309Y-38314285D01*
X114339880Y-37361904D02*
X113339880Y-37361904D01*
X113339880Y-37600000D01*
X113387500Y-37742857D01*
X113482738Y-37838095D01*
X113577976Y-37885714D01*
X113768452Y-37933333D01*
X113911309Y-37933333D01*
X114101785Y-37885714D01*
X114197023Y-37838095D01*
X114292261Y-37742857D01*
X114339880Y-37600000D01*
X114339880Y-37361904D01*
X113339880Y-38838095D02*
X113339880Y-38361904D01*
X113816071Y-38314285D01*
X113768452Y-38361904D01*
X113720833Y-38457142D01*
X113720833Y-38695238D01*
X113768452Y-38790476D01*
X113816071Y-38838095D01*
X113911309Y-38885714D01*
X114149404Y-38885714D01*
X114244642Y-38838095D01*
X114292261Y-38790476D01*
X114339880Y-38695238D01*
X114339880Y-38457142D01*
X114292261Y-38361904D01*
X114244642Y-38314285D01*
X95289880Y-37361904D02*
X94289880Y-37361904D01*
X94289880Y-37600000D01*
X94337500Y-37742857D01*
X94432738Y-37838095D01*
X94527976Y-37885714D01*
X94718452Y-37933333D01*
X94861309Y-37933333D01*
X95051785Y-37885714D01*
X95147023Y-37838095D01*
X95242261Y-37742857D01*
X95289880Y-37600000D01*
X95289880Y-37361904D01*
X94623214Y-38790476D02*
X95289880Y-38790476D01*
X94242261Y-38552380D02*
X94956547Y-38314285D01*
X94956547Y-38933333D01*
X76239880Y-37361904D02*
X75239880Y-37361904D01*
X75239880Y-37600000D01*
X75287500Y-37742857D01*
X75382738Y-37838095D01*
X75477976Y-37885714D01*
X75668452Y-37933333D01*
X75811309Y-37933333D01*
X76001785Y-37885714D01*
X76097023Y-37838095D01*
X76192261Y-37742857D01*
X76239880Y-37600000D01*
X76239880Y-37361904D01*
X75239880Y-38266666D02*
X75239880Y-38885714D01*
X75620833Y-38552380D01*
X75620833Y-38695238D01*
X75668452Y-38790476D01*
X75716071Y-38838095D01*
X75811309Y-38885714D01*
X76049404Y-38885714D01*
X76144642Y-38838095D01*
X76192261Y-38790476D01*
X76239880Y-38695238D01*
X76239880Y-38409523D01*
X76192261Y-38314285D01*
X76144642Y-38266666D01*
X48363095Y-44521130D02*
X48363095Y-43521130D01*
X48125000Y-43521130D01*
X47982142Y-43568750D01*
X47886904Y-43663988D01*
X47839285Y-43759226D01*
X47791666Y-43949702D01*
X47791666Y-44092559D01*
X47839285Y-44283035D01*
X47886904Y-44378273D01*
X47982142Y-44473511D01*
X48125000Y-44521130D01*
X48363095Y-44521130D01*
X47410714Y-43616369D02*
X47363095Y-43568750D01*
X47267857Y-43521130D01*
X47029761Y-43521130D01*
X46934523Y-43568750D01*
X46886904Y-43616369D01*
X46839285Y-43711607D01*
X46839285Y-43806845D01*
X46886904Y-43949702D01*
X47458333Y-44521130D01*
X46839285Y-44521130D01*
X29313095Y-44521130D02*
X29313095Y-43521130D01*
X29075000Y-43521130D01*
X28932142Y-43568750D01*
X28836904Y-43663988D01*
X28789285Y-43759226D01*
X28741666Y-43949702D01*
X28741666Y-44092559D01*
X28789285Y-44283035D01*
X28836904Y-44378273D01*
X28932142Y-44473511D01*
X29075000Y-44521130D01*
X29313095Y-44521130D01*
X27789285Y-44521130D02*
X28360714Y-44521130D01*
X28075000Y-44521130D02*
X28075000Y-43521130D01*
X28170238Y-43663988D01*
X28265476Y-43759226D01*
X28360714Y-43806845D01*
X195413095Y-109193392D02*
X195460714Y-109241011D01*
X195603571Y-109288630D01*
X195698809Y-109288630D01*
X195841666Y-109241011D01*
X195936904Y-109145773D01*
X195984523Y-109050535D01*
X196032142Y-108860059D01*
X196032142Y-108717202D01*
X195984523Y-108526726D01*
X195936904Y-108431488D01*
X195841666Y-108336250D01*
X195698809Y-108288630D01*
X195603571Y-108288630D01*
X195460714Y-108336250D01*
X195413095Y-108383869D01*
X195079761Y-108288630D02*
X194413095Y-108288630D01*
X194841666Y-109288630D01*
X194032142Y-108907678D02*
X193270238Y-108907678D01*
X192841666Y-108383869D02*
X192794047Y-108336250D01*
X192698809Y-108288630D01*
X192460714Y-108288630D01*
X192365476Y-108336250D01*
X192317857Y-108383869D01*
X192270238Y-108479107D01*
X192270238Y-108574345D01*
X192317857Y-108717202D01*
X192889285Y-109288630D01*
X192270238Y-109288630D01*
X191889285Y-108383869D02*
X191841666Y-108336250D01*
X191746428Y-108288630D01*
X191508333Y-108288630D01*
X191413095Y-108336250D01*
X191365476Y-108383869D01*
X191317857Y-108479107D01*
X191317857Y-108574345D01*
X191365476Y-108717202D01*
X191936904Y-109288630D01*
X191317857Y-109288630D01*
X195413095Y-112368392D02*
X195460714Y-112416011D01*
X195603571Y-112463630D01*
X195698809Y-112463630D01*
X195841666Y-112416011D01*
X195936904Y-112320773D01*
X195984523Y-112225535D01*
X196032142Y-112035059D01*
X196032142Y-111892202D01*
X195984523Y-111701726D01*
X195936904Y-111606488D01*
X195841666Y-111511250D01*
X195698809Y-111463630D01*
X195603571Y-111463630D01*
X195460714Y-111511250D01*
X195413095Y-111558869D01*
X194555952Y-111463630D02*
X194746428Y-111463630D01*
X194841666Y-111511250D01*
X194889285Y-111558869D01*
X194984523Y-111701726D01*
X195032142Y-111892202D01*
X195032142Y-112273154D01*
X194984523Y-112368392D01*
X194936904Y-112416011D01*
X194841666Y-112463630D01*
X194651190Y-112463630D01*
X194555952Y-112416011D01*
X194508333Y-112368392D01*
X194460714Y-112273154D01*
X194460714Y-112035059D01*
X194508333Y-111939821D01*
X194555952Y-111892202D01*
X194651190Y-111844583D01*
X194841666Y-111844583D01*
X194936904Y-111892202D01*
X194984523Y-111939821D01*
X195032142Y-112035059D01*
X194032142Y-112082678D02*
X193270238Y-112082678D01*
X192841666Y-111558869D02*
X192794047Y-111511250D01*
X192698809Y-111463630D01*
X192460714Y-111463630D01*
X192365476Y-111511250D01*
X192317857Y-111558869D01*
X192270238Y-111654107D01*
X192270238Y-111749345D01*
X192317857Y-111892202D01*
X192889285Y-112463630D01*
X192270238Y-112463630D01*
X191889285Y-111558869D02*
X191841666Y-111511250D01*
X191746428Y-111463630D01*
X191508333Y-111463630D01*
X191413095Y-111511250D01*
X191365476Y-111558869D01*
X191317857Y-111654107D01*
X191317857Y-111749345D01*
X191365476Y-111892202D01*
X191936904Y-112463630D01*
X191317857Y-112463630D01*
X167631845Y-106018392D02*
X167679464Y-106066011D01*
X167822321Y-106113630D01*
X167917559Y-106113630D01*
X168060416Y-106066011D01*
X168155654Y-105970773D01*
X168203273Y-105875535D01*
X168250892Y-105685059D01*
X168250892Y-105542202D01*
X168203273Y-105351726D01*
X168155654Y-105256488D01*
X168060416Y-105161250D01*
X167917559Y-105113630D01*
X167822321Y-105113630D01*
X167679464Y-105161250D01*
X167631845Y-105208869D01*
X166727083Y-105113630D02*
X167203273Y-105113630D01*
X167250892Y-105589821D01*
X167203273Y-105542202D01*
X167108035Y-105494583D01*
X166869940Y-105494583D01*
X166774702Y-105542202D01*
X166727083Y-105589821D01*
X166679464Y-105685059D01*
X166679464Y-105923154D01*
X166727083Y-106018392D01*
X166774702Y-106066011D01*
X166869940Y-106113630D01*
X167108035Y-106113630D01*
X167203273Y-106066011D01*
X167250892Y-106018392D01*
X166250892Y-105732678D02*
X165488988Y-105732678D01*
X164488988Y-106113630D02*
X165060416Y-106113630D01*
X164774702Y-106113630D02*
X164774702Y-105113630D01*
X164869940Y-105256488D01*
X164965178Y-105351726D01*
X165060416Y-105399345D01*
X163869940Y-105113630D02*
X163774702Y-105113630D01*
X163679464Y-105161250D01*
X163631845Y-105208869D01*
X163584226Y-105304107D01*
X163536607Y-105494583D01*
X163536607Y-105732678D01*
X163584226Y-105923154D01*
X163631845Y-106018392D01*
X163679464Y-106066011D01*
X163774702Y-106113630D01*
X163869940Y-106113630D01*
X163965178Y-106066011D01*
X164012797Y-106018392D01*
X164060416Y-105923154D01*
X164108035Y-105732678D01*
X164108035Y-105494583D01*
X164060416Y-105304107D01*
X164012797Y-105208869D01*
X163965178Y-105161250D01*
X163869940Y-105113630D01*
X166158392Y-110736309D02*
X166206011Y-110688690D01*
X166253630Y-110545833D01*
X166253630Y-110450595D01*
X166206011Y-110307738D01*
X166110773Y-110212500D01*
X166015535Y-110164880D01*
X165825059Y-110117261D01*
X165682202Y-110117261D01*
X165491726Y-110164880D01*
X165396488Y-110212500D01*
X165301250Y-110307738D01*
X165253630Y-110450595D01*
X165253630Y-110545833D01*
X165301250Y-110688690D01*
X165348869Y-110736309D01*
X165586964Y-111593452D02*
X166253630Y-111593452D01*
X165206011Y-111355357D02*
X165920297Y-111117261D01*
X165920297Y-111736309D01*
X165872678Y-112117261D02*
X165872678Y-112879166D01*
X165253630Y-113545833D02*
X165253630Y-113641071D01*
X165301250Y-113736309D01*
X165348869Y-113783928D01*
X165444107Y-113831547D01*
X165634583Y-113879166D01*
X165872678Y-113879166D01*
X166063154Y-113831547D01*
X166158392Y-113783928D01*
X166206011Y-113736309D01*
X166253630Y-113641071D01*
X166253630Y-113545833D01*
X166206011Y-113450595D01*
X166158392Y-113402976D01*
X166063154Y-113355357D01*
X165872678Y-113307738D01*
X165634583Y-113307738D01*
X165444107Y-113355357D01*
X165348869Y-113402976D01*
X165301250Y-113450595D01*
X165253630Y-113545833D01*
X166158392Y-114307738D02*
X166206011Y-114355357D01*
X166253630Y-114307738D01*
X166206011Y-114260119D01*
X166158392Y-114307738D01*
X166253630Y-114307738D01*
X166253630Y-115307738D02*
X166253630Y-114736309D01*
X166253630Y-115022023D02*
X165253630Y-115022023D01*
X165396488Y-114926785D01*
X165491726Y-114831547D01*
X165539345Y-114736309D01*
X185576190Y-115358392D02*
X185623809Y-115406011D01*
X185766666Y-115453630D01*
X185861904Y-115453630D01*
X186004761Y-115406011D01*
X186100000Y-115310773D01*
X186147619Y-115215535D01*
X186195238Y-115025059D01*
X186195238Y-114882202D01*
X186147619Y-114691726D01*
X186100000Y-114596488D01*
X186004761Y-114501250D01*
X185861904Y-114453630D01*
X185766666Y-114453630D01*
X185623809Y-114501250D01*
X185576190Y-114548869D01*
X185242857Y-114453630D02*
X184623809Y-114453630D01*
X184957142Y-114834583D01*
X184814285Y-114834583D01*
X184719047Y-114882202D01*
X184671428Y-114929821D01*
X184623809Y-115025059D01*
X184623809Y-115263154D01*
X184671428Y-115358392D01*
X184719047Y-115406011D01*
X184814285Y-115453630D01*
X185100000Y-115453630D01*
X185195238Y-115406011D01*
X185242857Y-115358392D01*
X184195238Y-115072678D02*
X183433333Y-115072678D01*
X182766666Y-114453630D02*
X182671428Y-114453630D01*
X182576190Y-114501250D01*
X182528571Y-114548869D01*
X182480952Y-114644107D01*
X182433333Y-114834583D01*
X182433333Y-115072678D01*
X182480952Y-115263154D01*
X182528571Y-115358392D01*
X182576190Y-115406011D01*
X182671428Y-115453630D01*
X182766666Y-115453630D01*
X182861904Y-115406011D01*
X182909523Y-115358392D01*
X182957142Y-115263154D01*
X183004761Y-115072678D01*
X183004761Y-114834583D01*
X182957142Y-114644107D01*
X182909523Y-114548869D01*
X182861904Y-114501250D01*
X182766666Y-114453630D01*
X182004761Y-115358392D02*
X181957142Y-115406011D01*
X182004761Y-115453630D01*
X182052380Y-115406011D01*
X182004761Y-115358392D01*
X182004761Y-115453630D01*
X181004761Y-115453630D02*
X181576190Y-115453630D01*
X181290476Y-115453630D02*
X181290476Y-114453630D01*
X181385714Y-114596488D01*
X181480952Y-114691726D01*
X181576190Y-114739345D01*
X190155892Y-102005059D02*
X190203511Y-101957440D01*
X190251130Y-101814583D01*
X190251130Y-101719345D01*
X190203511Y-101576488D01*
X190108273Y-101481250D01*
X190013035Y-101433630D01*
X189822559Y-101386011D01*
X189679702Y-101386011D01*
X189489226Y-101433630D01*
X189393988Y-101481250D01*
X189298750Y-101576488D01*
X189251130Y-101719345D01*
X189251130Y-101814583D01*
X189298750Y-101957440D01*
X189346369Y-102005059D01*
X189346369Y-102386011D02*
X189298750Y-102433630D01*
X189251130Y-102528869D01*
X189251130Y-102766964D01*
X189298750Y-102862202D01*
X189346369Y-102909821D01*
X189441607Y-102957440D01*
X189536845Y-102957440D01*
X189679702Y-102909821D01*
X190251130Y-102338392D01*
X190251130Y-102957440D01*
X189870178Y-103386011D02*
X189870178Y-104147916D01*
X189251130Y-104814583D02*
X189251130Y-104909821D01*
X189298750Y-105005059D01*
X189346369Y-105052678D01*
X189441607Y-105100297D01*
X189632083Y-105147916D01*
X189870178Y-105147916D01*
X190060654Y-105100297D01*
X190155892Y-105052678D01*
X190203511Y-105005059D01*
X190251130Y-104909821D01*
X190251130Y-104814583D01*
X190203511Y-104719345D01*
X190155892Y-104671726D01*
X190060654Y-104624107D01*
X189870178Y-104576488D01*
X189632083Y-104576488D01*
X189441607Y-104624107D01*
X189346369Y-104671726D01*
X189298750Y-104719345D01*
X189251130Y-104814583D01*
X190155892Y-105576488D02*
X190203511Y-105624107D01*
X190251130Y-105576488D01*
X190203511Y-105528869D01*
X190155892Y-105576488D01*
X190251130Y-105576488D01*
X190251130Y-106576488D02*
X190251130Y-106005059D01*
X190251130Y-106290773D02*
X189251130Y-106290773D01*
X189393988Y-106195535D01*
X189489226Y-106100297D01*
X189536845Y-106005059D01*
X179855654Y-97895892D02*
X179903273Y-97943511D01*
X180046130Y-97991130D01*
X180141369Y-97991130D01*
X180284226Y-97943511D01*
X180379464Y-97848273D01*
X180427083Y-97753035D01*
X180474702Y-97562559D01*
X180474702Y-97419702D01*
X180427083Y-97229226D01*
X180379464Y-97133988D01*
X180284226Y-97038750D01*
X180141369Y-96991130D01*
X180046130Y-96991130D01*
X179903273Y-97038750D01*
X179855654Y-97086369D01*
X178903273Y-97991130D02*
X179474702Y-97991130D01*
X179188988Y-97991130D02*
X179188988Y-96991130D01*
X179284226Y-97133988D01*
X179379464Y-97229226D01*
X179474702Y-97276845D01*
X178474702Y-97610178D02*
X177712797Y-97610178D01*
X176712797Y-97991130D02*
X177284226Y-97991130D01*
X176998511Y-97991130D02*
X176998511Y-96991130D01*
X177093750Y-97133988D01*
X177188988Y-97229226D01*
X177284226Y-97276845D01*
X169008630Y-106934226D02*
X169008630Y-107553273D01*
X169389583Y-107219940D01*
X169389583Y-107362797D01*
X169437202Y-107458035D01*
X169484821Y-107505654D01*
X169580059Y-107553273D01*
X169818154Y-107553273D01*
X169913392Y-107505654D01*
X169961011Y-107458035D01*
X170008630Y-107362797D01*
X170008630Y-107077083D01*
X169961011Y-106981845D01*
X169913392Y-106934226D01*
X169103869Y-107934226D02*
X169056250Y-107981845D01*
X169008630Y-108077083D01*
X169008630Y-108315178D01*
X169056250Y-108410416D01*
X169103869Y-108458035D01*
X169199107Y-108505654D01*
X169294345Y-108505654D01*
X169437202Y-108458035D01*
X170008630Y-107886607D01*
X170008630Y-108505654D01*
X169008630Y-108934226D02*
X169818154Y-108934226D01*
X169913392Y-108981845D01*
X169961011Y-109029464D01*
X170008630Y-109124702D01*
X170008630Y-109315178D01*
X169961011Y-109410416D01*
X169913392Y-109458035D01*
X169818154Y-109505654D01*
X169008630Y-109505654D01*
X169341964Y-110410416D02*
X170008630Y-110410416D01*
X168961011Y-110172321D02*
X169675297Y-109934226D01*
X169675297Y-110553273D01*
M02*
